<svg width="110" height="146" viewBox="0 0 110 146" fill="none" xmlns="http://www.w3.org/2000/svg">
<path d="M58.7644 6.23145V6.21444C58.7649 5.41061 58.6068 4.61455 58.299 3.87173C57.9912 3.1289 57.5399 2.45388 56.9707 1.8852C56.4015 1.31652 55.7256 0.865333 54.9817 0.557408C54.2378 0.249483 53.4404 0.0908523 52.635 0.0905767H6.73117C5.92579 0.0902442 5.12823 0.248246 4.38403 0.555562C3.63983 0.862877 2.96355 1.31349 2.39383 1.88166C1.8241 2.44984 1.37208 3.12446 1.06357 3.867C0.755057 4.60954 0.596098 5.40546 0.595765 6.20931C0.595432 7.01317 0.753733 7.80922 1.06163 8.55202C1.36953 9.29481 1.82099 9.9698 2.39024 10.5384C2.95949 11.1071 3.63539 11.5583 4.37934 11.8662C5.12329 12.1741 5.92071 12.3328 6.72609 12.3331L46.4859 12.3451L46.4867 52.0263C46.4855 53.6518 47.1314 55.2112 48.2822 56.3614C49.433 57.5116 50.9944 58.1584 52.623 58.1595C54.2516 58.1607 55.8139 57.516 56.9663 56.3674C58.1187 55.2188 58.7667 53.6603 58.7678 52.0348L58.7644 6.23147L58.7644 6.23145Z" fill="#C25700"/>
<path d="M40.822 24.0999C40.8221 23.2963 40.6636 22.5005 40.3555 21.7581C40.0474 21.0156 39.5958 20.341 39.0264 19.7728C38.457 19.2046 37.7811 18.7539 37.0372 18.4465C36.2933 18.1391 35.496 17.981 34.6909 17.9812H6.73116C5.92623 17.9795 5.12887 18.1362 4.38469 18.4424C3.64051 18.7485 2.96411 19.1982 2.39421 19.7655C1.82432 20.3329 1.3721 21.0069 1.06344 21.7489C0.754779 22.4908 0.595732 23.2863 0.595398 24.0897C0.595065 24.8931 0.753449 25.6887 1.06149 26.4309C1.36954 27.1732 1.8212 27.8475 2.39062 28.4153C2.96005 28.9832 3.63607 29.4334 4.37999 29.7401C5.12392 30.0469 5.92116 30.2043 6.72608 30.2033H28.5563L28.5579 52.0263C28.5574 52.8301 28.7155 53.6261 29.0231 54.3688C29.3307 55.1116 29.782 55.7866 30.351 56.3554C30.92 56.9241 31.5957 57.3754 32.3394 57.6835C33.0832 57.9916 33.8805 58.1505 34.6857 58.151C35.491 58.1516 36.2885 57.9938 37.0327 57.6868C37.7769 57.3797 38.4532 56.9293 39.023 56.3614C39.5928 55.7934 40.045 55.119 40.3536 54.3767C40.6623 53.6343 40.8215 52.8386 40.8221 52.0348L40.822 24.0999Z" fill="#4C79AF"/>
<path d="M22.8916 41.8148C22.8904 40.2349 22.262 38.7197 21.1438 37.6013C20.0257 36.4829 18.509 35.8524 16.9261 35.8479H6.56975C4.98592 35.8476 3.46682 36.4752 2.34664 37.5928C1.22646 38.7104 0.59696 40.2263 0.596619 41.8072C0.596278 43.388 1.22513 44.9042 2.34483 46.0223C3.46452 47.1403 4.98335 47.7686 6.56717 47.769L10.9684 47.775L10.9702 52.1901C10.9686 52.972 11.1214 53.7465 11.42 54.4694C11.7186 55.1923 12.157 55.8493 12.7102 56.4029C13.2635 56.9565 13.9206 57.3959 14.6441 57.6958C15.3676 57.9957 16.1432 58.1503 16.9266 58.1507C17.7099 58.1512 18.4857 57.9975 19.2095 57.6984C19.9334 57.3993 20.591 56.9607 21.1449 56.4078C21.6987 55.8548 22.1379 55.1983 22.4373 54.4757C22.7367 53.7532 22.8905 52.9788 22.8898 52.1969L22.8916 41.8148Z" fill="#386097"/>
<path d="M16.4315 77.7017V79.9179H9.82625V97.4795H7.18978V79.9179H0.584961V77.7017H16.4315Z" fill="#386097"/>
<path d="M20.2058 82.8262C23.7761 82.8262 25.5615 84.1096 25.562 86.6764V94.9311C25.562 95.4669 25.8118 95.7347 26.3114 95.7346C26.5583 95.7334 26.8029 95.6864 27.0327 95.596V97.4241C26.5113 97.6966 25.9282 97.8302 25.34 97.8118C24.0077 97.8118 23.3416 97.0732 23.3416 95.596C22.7237 96.3241 21.9477 96.9021 21.0724 97.286C20.1972 97.67 19.2459 97.8498 18.2906 97.8118C17.0436 97.8845 15.8106 97.5169 14.8078 96.7734C14.3816 96.4078 14.0458 95.9487 13.8268 95.4321C13.6077 94.9155 13.5113 94.3554 13.5449 93.7955C13.5194 93.2276 13.6179 92.661 13.8335 92.1349C14.0492 91.6088 14.377 91.1358 14.794 90.7487C15.6266 89.9913 17.56 89.4188 20.5943 89.0312C21.3292 88.9951 22.046 88.7913 22.6897 88.4356C22.8698 88.2988 23.0134 88.1198 23.1077 87.9144C23.2021 87.7091 23.2444 87.4837 23.2308 87.2582C23.2308 85.6888 22.1668 84.904 20.0389 84.9039C19.1179 84.8386 18.1998 85.0666 17.4167 85.555C17.1114 85.8045 16.8667 86.1197 16.7009 86.4771C16.535 86.8345 16.4524 87.2246 16.4591 87.6184H14.1003C14.2848 84.4241 16.3199 82.8266 20.2058 82.8262ZM16.0426 93.6294C16.0284 93.9268 16.0867 94.2233 16.2124 94.4934C16.3381 94.7635 16.5275 94.9992 16.7643 95.1803C17.3689 95.5859 18.0909 95.7808 18.8179 95.7346C19.9439 95.781 21.053 95.4493 21.9679 94.7925C22.3398 94.5457 22.6464 94.2127 22.8614 93.822C23.0764 93.4313 23.1935 92.9944 23.2027 92.5488V90.0838C22.7017 90.4065 22.1309 90.6058 21.5376 90.6652L19.1232 91.0254C18.2838 91.0914 17.4782 91.3834 16.7919 91.8701C16.5404 92.0865 16.342 92.3577 16.2121 92.6627C16.0822 92.9677 16.0242 93.2984 16.0426 93.6294Z" fill="#386097"/>
<path d="M31.5838 77.7017V97.4795H29.2245V77.7017H31.5838Z" fill="#386097"/>
<path d="M41.0747 82.8261C41.9875 82.7846 42.897 82.9615 43.7273 83.3422C44.5577 83.7229 45.2848 84.2962 45.848 85.0144C46.9948 86.4737 47.5684 88.3851 47.5687 90.7487V91.0253H36.8283V91.1914C36.7978 91.7946 36.8876 92.3977 37.0924 92.966C37.2973 93.5342 37.6132 94.0562 38.0217 94.5016C38.452 94.9228 38.9653 95.2499 39.5292 95.4622C40.0931 95.6745 40.695 95.7672 41.2968 95.7345C43.3503 95.7345 44.5899 94.802 45.0154 92.9369H47.3467C47.1339 94.3683 46.3911 95.6679 45.2651 96.5793C44.0917 97.4328 42.6644 97.867 41.2136 97.8117C38.956 97.8117 37.2445 97.0731 36.0789 95.596C34.8935 94.0592 34.2759 92.1611 34.3306 90.2224C34.2648 88.2787 34.9505 86.3842 36.2458 84.9313C36.8484 84.2504 37.5928 83.7091 38.4269 83.3455C39.261 82.9818 40.1647 82.8046 41.0747 82.8261ZM45.071 88.9481C45.0294 87.8591 44.5785 86.8256 43.8082 86.0532C43.4289 85.6743 42.9759 85.3769 42.4771 85.1792C41.9783 84.9815 41.4442 84.8878 40.9078 84.9038C40.3956 84.8928 39.8864 84.9838 39.4099 85.1717C38.9335 85.3595 38.4993 85.6403 38.133 85.9977C37.3474 86.7863 36.8825 87.8375 36.8283 88.9482L45.071 88.9481Z" fill="#386097"/>
<path d="M56.81 82.8261C60.1027 82.8261 61.7492 84.5342 61.7497 87.9505V97.4795H59.3909V87.7014C59.4104 87.3168 59.3465 86.9326 59.2036 86.575C59.0607 86.2174 58.8421 85.8948 58.5628 85.6292C58.2835 85.3636 57.9501 85.1613 57.5854 85.0361C57.2206 84.9109 56.833 84.8658 56.4491 84.9038C55.8712 84.8679 55.2924 84.9583 54.753 85.1688C54.2137 85.3793 53.727 85.7048 53.3267 86.1225C52.5701 87.0072 52.1783 88.1457 52.2307 89.3078V97.4795H49.8719V83.1588H52.0919V85.4301H52.1476C52.6058 84.6067 53.2847 83.9269 54.1082 83.467C54.9317 83.0071 55.8673 82.7851 56.81 82.8261Z" fill="#386097"/>
<path d="M67.8828 78.8654V83.1589H70.7414V85.2361H67.8828V94.2112C67.853 94.5359 67.9416 94.8605 68.1324 95.1252C68.2989 95.3098 68.7152 95.4021 69.3815 95.4019H70.7414V97.4796H68.7986C67.5775 97.4796 66.7265 97.2765 66.2453 96.8702C65.7641 96.464 65.5237 95.6699 65.524 94.4879V85.236H63.0815V83.1588H65.524V78.8654L67.8828 78.8654Z" fill="#386097"/>
<path d="M8.31804 103.744C10.5566 103.744 12.3328 104.298 13.6467 105.406C14.3038 105.972 14.8228 106.681 15.1643 107.478C15.5057 108.274 15.6606 109.138 15.617 110.004H13.1194C12.8231 107.308 11.1858 105.96 8.20726 105.96C6.78227 105.96 5.68599 106.251 4.91842 106.832C4.53692 107.125 4.23269 107.507 4.03204 107.944C3.83139 108.38 3.74036 108.859 3.76682 109.339C3.76993 109.684 3.84854 110.023 3.99712 110.334C4.14571 110.645 4.36068 110.92 4.62695 111.14C5.20037 111.657 7.03205 112.229 10.122 112.857C12.2492 113.282 13.8357 113.942 14.8815 114.838C15.4069 115.301 15.8207 115.876 16.0922 116.522C16.3637 117.167 16.4859 117.865 16.4496 118.563C16.4772 119.419 16.2821 120.266 15.8832 121.024C15.4843 121.781 14.8954 122.422 14.174 122.884C12.553 123.95 10.6469 124.5 8.7065 124.463C6.20885 124.463 4.21995 123.84 2.7398 122.593C2.00388 121.967 1.42124 121.181 1.03647 120.295C0.651695 119.409 0.474975 118.448 0.519823 117.483H3.01748C2.98873 118.158 3.12088 118.83 3.40309 119.444C3.68529 120.058 4.10947 120.596 4.64075 121.015C5.84505 121.88 7.30704 122.315 8.78971 122.247C10.3997 122.247 11.6394 121.938 12.5089 121.319C12.9344 121.02 13.2772 120.617 13.5052 120.15C13.7333 119.683 13.8392 119.166 13.8131 118.646C13.8208 118.189 13.7083 117.737 13.4867 117.336C13.2652 116.935 12.9423 116.599 12.5502 116.361C11.7082 115.798 10.2697 115.323 8.23484 114.935C5.3297 114.362 3.41942 113.661 2.50398 112.83C2.04869 112.413 1.68994 111.902 1.4527 111.333C1.21546 110.763 1.10545 110.149 1.13034 109.533C1.10311 108.726 1.2674 107.924 1.60982 107.192C1.95224 106.461 2.46309 105.82 3.10069 105.323C4.41395 104.27 6.15306 103.744 8.31804 103.744Z" fill="#386097"/>
<path d="M24.7475 109.339C26.8933 109.339 28.5908 110.022 29.8398 111.389C31.0889 112.756 31.7133 114.575 31.7132 116.846C31.7901 118.809 31.1209 120.728 29.8398 122.22C28.5912 123.623 26.8938 124.325 24.7475 124.325C23.8065 124.366 22.8676 124.206 21.9938 123.855C21.1201 123.503 20.3319 122.97 19.6823 122.289C18.4152 120.931 17.7815 119.117 17.7814 116.846C17.7814 114.557 18.4058 112.733 19.6547 111.375C20.9038 110.018 22.6014 109.339 24.7475 109.339ZM20.279 116.846C20.2142 118.255 20.6573 119.641 21.5281 120.752C21.9218 121.219 22.4129 121.595 22.9671 121.853C23.5214 122.112 24.1255 122.246 24.7372 122.248C25.3489 122.249 25.9535 122.117 26.5089 121.861C27.0643 121.605 27.557 121.231 27.9527 120.765C28.836 119.655 29.2849 118.262 29.2155 116.846C29.2788 115.433 28.836 114.043 27.9665 112.926C27.5793 112.441 27.0845 112.052 26.5211 111.79C25.9576 111.528 25.3408 111.4 24.7195 111.417C24.1079 111.408 23.5026 111.541 22.9512 111.806C22.3999 112.07 21.9174 112.458 21.5419 112.94C20.6681 114.05 20.2202 115.435 20.279 116.846Z" fill="#386097"/>
<path d="M36.292 104.215V123.992H33.9327V104.215H36.292Z" fill="#386097"/>
<path d="M42.175 109.672V119.422C42.1605 119.796 42.2219 120.169 42.3554 120.519C42.4889 120.869 42.6918 121.188 42.9519 121.458C43.2348 121.729 43.5704 121.939 43.938 122.074C44.3056 122.21 44.6973 122.269 45.0887 122.247C46.4766 122.247 47.5312 121.841 48.2525 121.029C49.0014 120.14 49.3879 119.003 49.3351 117.843V109.672H51.6939V123.992H49.474V121.721H49.4183C48.4374 123.457 46.8833 124.325 44.7558 124.325C41.4622 124.325 39.8157 122.626 39.8162 119.228V109.672H42.175Z" fill="#386097"/>
<path d="M57.8275 105.378V109.672H60.686V111.749H57.8275V120.724C57.7976 121.049 57.8863 121.373 58.0771 121.638C58.2435 121.823 58.6599 121.915 59.3262 121.915H60.686V123.993H58.7433C57.5222 123.993 56.6711 123.789 56.19 123.383C55.7088 122.977 55.4684 122.183 55.4687 121.001V111.749H53.0262V109.672H55.4687V105.378L57.8275 105.378Z" fill="#386097"/>
<path d="M65.0984 104.215V107.096H62.7391V104.215H65.0984ZM65.0984 109.672V123.992H62.7391V109.672H65.0984Z" fill="#386097"/>
<path d="M74.2561 109.339C76.4019 109.339 78.0993 110.022 79.3484 111.389C80.5975 112.756 81.2219 114.575 81.2218 116.846C81.2986 118.809 80.6295 120.728 79.3484 122.22C78.0998 123.623 76.4023 124.325 74.2561 124.325C73.3151 124.366 72.3761 124.206 71.5024 123.855C70.6287 123.503 69.8405 122.97 69.1909 122.289C67.9237 120.931 67.2901 119.117 67.2899 116.846C67.2899 114.557 67.9144 112.733 69.1633 111.375C70.4124 110.018 72.1099 109.339 74.2561 109.339ZM69.7876 116.846C69.7227 118.255 70.1658 119.641 71.0366 120.752C71.4303 121.219 71.9214 121.595 72.4757 121.853C73.0299 122.112 73.634 122.246 74.2457 122.248C74.8575 122.249 75.4621 122.117 76.0175 121.861C76.5728 121.605 77.0655 121.231 77.4612 120.765C78.3446 119.655 78.7934 118.262 78.7241 116.846C78.7873 115.433 78.3445 114.043 77.475 112.926C77.0879 112.441 76.5931 112.052 76.0296 111.79C75.4661 111.528 74.8494 111.4 74.228 111.417C73.6164 111.408 73.0111 111.541 72.4598 111.806C71.9084 112.07 71.426 112.458 71.0504 112.94C70.1766 114.05 69.7288 115.435 69.7876 116.846H69.7876Z" fill="#386097"/>
<path d="M90.7962 109.339C94.0889 109.339 95.7354 111.047 95.7359 114.464V123.993H93.3771V114.214C93.3966 113.83 93.3327 113.446 93.1898 113.088C93.0469 112.73 92.8283 112.408 92.549 112.142C92.2698 111.877 91.9363 111.674 91.5716 111.549C91.2068 111.424 90.8192 111.379 90.4354 111.417C89.8574 111.381 89.2786 111.471 88.7393 111.682C88.2 111.892 87.7132 112.218 87.3129 112.636C86.5563 113.52 86.1646 114.659 86.217 115.821V123.993H83.8582V109.672H86.0781V111.943H86.1338C86.592 111.12 87.2709 110.44 88.0944 109.98C88.9179 109.52 89.8535 109.298 90.7962 109.339Z" fill="#386097"/>
<path d="M103.368 109.339C105.311 109.339 106.749 109.713 107.684 110.461C108.618 111.209 109.131 112.331 109.224 113.827H106.865V113.799C106.845 113.445 106.743 113.101 106.567 112.794C106.392 112.486 106.147 112.223 105.852 112.026C105.159 111.595 104.351 111.382 103.535 111.417C102.762 111.379 101.992 111.541 101.3 111.887C101.062 112.012 100.861 112.198 100.717 112.425C100.574 112.652 100.493 112.914 100.483 113.182C100.473 113.451 100.535 113.717 100.661 113.954C100.788 114.191 100.975 114.391 101.203 114.533C101.88 114.932 102.622 115.209 103.396 115.35L105.616 115.849C106.768 116.055 107.853 116.535 108.78 117.247C109.142 117.566 109.427 117.961 109.614 118.405C109.802 118.849 109.886 119.329 109.862 119.81C109.889 120.456 109.753 121.099 109.467 121.679C109.181 122.26 108.754 122.76 108.225 123.134C107.133 123.928 105.644 124.325 103.757 124.325C101.925 124.325 100.473 123.923 99.3994 123.12C98.3263 122.317 97.7527 121.103 97.6787 119.477H100.038C100.037 119.878 100.133 120.273 100.316 120.63C100.5 120.986 100.766 121.294 101.093 121.527C101.928 122.054 102.909 122.306 103.896 122.247C106.208 122.247 107.365 121.536 107.365 120.114C107.368 119.813 107.292 119.515 107.143 119.253C106.995 118.99 106.779 118.771 106.518 118.619C105.953 118.25 104.746 117.871 102.897 117.483C101.138 117.133 99.8801 116.643 99.1222 116.015C98.7443 115.698 98.4449 115.298 98.2474 114.846C98.05 114.394 97.9598 113.903 97.9839 113.411C97.9702 112.838 98.0956 112.271 98.3494 111.757C98.6032 111.243 98.9778 110.799 99.4413 110.461C100.588 109.66 101.97 109.265 103.368 109.339Z" fill="#386097"/>
<path fill-rule="evenodd" clip-rule="evenodd" d="M88.8494 135.69H89.111C89.3359 135.69 89.5386 135.679 89.5386 135.425C89.5386 135.208 89.3548 135.172 89.185 135.172H88.8494V135.69ZM88.599 134.969H89.2258C89.6099 134.969 89.7923 135.123 89.7923 135.435C89.7957 135.493 89.7871 135.551 89.767 135.605C89.7468 135.659 89.7156 135.709 89.6754 135.75C89.6351 135.792 89.5866 135.825 89.5329 135.847C89.4793 135.868 89.4216 135.879 89.3637 135.878L89.8288 136.596H89.5562L89.1174 135.895H88.8495V136.596H88.599V134.969H88.599ZM89.1364 136.972C89.3737 136.981 89.6084 136.92 89.8105 136.796C90.0126 136.671 90.1728 136.49 90.2707 136.274C90.3686 136.058 90.3996 135.818 90.3598 135.584C90.32 135.35 90.2112 135.134 90.0473 134.963C89.8834 134.791 89.672 134.672 89.4401 134.622C89.2081 134.571 88.9663 134.591 88.7457 134.678C88.525 134.765 88.3355 134.917 88.2015 135.112C88.0675 135.308 87.9951 135.539 87.9936 135.776C87.9867 135.93 88.0111 136.084 88.0654 136.229C88.1197 136.373 88.2027 136.505 88.3094 136.617C88.4162 136.729 88.5445 136.818 88.6866 136.879C88.8287 136.94 88.9818 136.971 89.1364 136.972ZM89.1364 134.391C89.4125 134.391 89.6822 134.474 89.9114 134.627C90.1406 134.781 90.319 134.999 90.424 135.253C90.529 135.508 90.5558 135.788 90.5012 136.059C90.4466 136.329 90.3128 136.576 90.117 136.771C89.9212 136.965 89.672 137.097 89.4011 137.149C89.1301 137.202 88.8496 137.173 88.5951 137.067C88.3405 136.96 88.1233 136.781 87.971 136.551C87.8187 136.321 87.7381 136.051 87.7395 135.776C87.7389 135.593 87.7747 135.412 87.8447 135.243C87.9148 135.074 88.0179 134.921 88.1478 134.792C88.2778 134.663 88.4321 134.561 88.6018 134.492C88.7715 134.424 88.9533 134.389 89.1364 134.391Z" fill="#386097"/>
<path d="M2.10123 135.266L4.75484 142.328L7.41986 135.266H8.95277V143.669H7.89152V136.678H7.86775L5.23792 143.669H4.28317L1.65333 136.678H1.62955V143.669H0.568298V135.266H2.10123Z" fill="#386097"/>
<path d="M12.9738 137.443C14.4911 137.443 15.2498 137.988 15.2499 139.079V142.586C15.2499 142.814 15.356 142.928 15.568 142.928C15.673 142.927 15.777 142.907 15.8747 142.869V143.646C15.6532 143.762 15.4054 143.819 15.1553 143.811C14.5895 143.811 14.3066 143.497 14.3066 142.869C14.044 143.179 13.7142 143.424 13.3424 143.587C12.9705 143.75 12.5662 143.827 12.1603 143.811C11.6303 143.842 11.1063 143.685 10.6802 143.369C10.4991 143.214 10.3565 143.019 10.2635 142.799C10.1704 142.58 10.1295 142.342 10.1439 142.104C10.133 141.862 10.1748 141.622 10.2665 141.398C10.3581 141.175 10.4973 140.974 10.6745 140.809C11.0282 140.488 11.8497 140.245 13.1388 140.08C13.4512 140.064 13.7559 139.977 14.0294 139.826C14.1059 139.768 14.1669 139.692 14.2069 139.605C14.247 139.517 14.2649 139.422 14.2591 139.326C14.2591 138.659 13.807 138.326 12.903 138.326C12.5117 138.298 12.1217 138.395 11.789 138.602C11.6593 138.708 11.5553 138.842 11.4849 138.994C11.4144 139.146 11.3792 139.312 11.382 139.479H10.3797C10.4581 138.122 11.3229 137.443 12.9738 137.443ZM11.2051 142.033C11.1991 142.16 11.2238 142.286 11.2773 142.4C11.3307 142.515 11.4111 142.615 11.5118 142.692C11.7686 142.865 12.0753 142.948 12.3843 142.928C12.8627 142.948 13.334 142.807 13.7227 142.527C13.8808 142.423 14.0111 142.281 14.1025 142.115C14.1939 141.949 14.2437 141.763 14.2476 141.574V140.527C14.0347 140.664 13.7922 140.748 13.5401 140.774L12.5141 140.927C12.1574 140.955 11.8151 141.079 11.5236 141.286C11.4167 141.378 11.3323 141.493 11.2771 141.623C11.2218 141.752 11.1972 141.893 11.2051 142.033Z" fill="#386097"/>
<path d="M19.7189 137.443C21.1177 137.443 21.8173 138.169 21.8176 139.62V143.669H20.8153V139.514C20.8245 139.201 20.7101 138.897 20.4968 138.667C20.3744 138.547 20.2282 138.455 20.0677 138.397C19.9071 138.338 19.7359 138.314 19.5653 138.326C19.3198 138.31 19.0739 138.349 18.8448 138.438C18.6156 138.528 18.4088 138.666 18.2387 138.843C17.9172 139.219 17.7506 139.703 17.7728 140.197V143.669H16.7705V137.584H17.7138V138.549H17.7376C17.9324 138.199 18.2209 137.91 18.5708 137.715C18.9208 137.52 19.3183 137.425 19.7189 137.443Z" fill="#386097"/>
<path d="M26.3698 137.443C26.7559 137.425 27.141 137.495 27.4963 137.647C27.8515 137.799 28.1678 138.029 28.4215 138.32C28.9492 138.977 29.2176 139.803 29.1761 140.644C29.2159 141.477 28.945 142.295 28.4158 142.939C28.1653 143.226 27.8536 143.453 27.5036 143.604C27.1535 143.755 26.7741 143.826 26.3931 143.811C26.0119 143.81 25.6349 143.732 25.2848 143.581C24.93 143.434 24.6294 143.181 24.4237 142.857H24.4004V146H23.3981V137.584H24.4004V138.408H24.4237C24.7461 137.765 25.3948 137.443 26.3698 137.443ZM24.3648 140.621C24.3323 141.223 24.5093 141.817 24.8659 142.304C25.037 142.512 25.2548 142.677 25.5018 142.785C25.7487 142.894 26.0177 142.943 26.2871 142.928C26.5454 142.941 26.8031 142.892 27.0381 142.784C27.2732 142.676 27.4788 142.514 27.6374 142.31C27.9846 141.8 28.1525 141.189 28.1148 140.574C28.1416 139.989 27.9598 139.413 27.6018 138.95C27.4352 138.745 27.2233 138.583 26.9828 138.474C26.7423 138.366 26.4799 138.315 26.2162 138.326C25.9589 138.316 25.7029 138.366 25.4684 138.472C25.234 138.578 25.0277 138.738 24.8659 138.938C24.5072 139.423 24.3299 140.018 24.3648 140.621Z" fill="#386097"/>
<path d="M32.9261 137.443C33.3284 137.423 33.7302 137.491 34.1038 137.641C34.4774 137.791 34.8139 138.021 35.09 138.314C35.6057 138.97 35.8859 139.781 35.8859 140.615C35.8859 141.449 35.6057 142.259 35.09 142.916C34.8176 143.215 34.4824 143.45 34.1083 143.605C33.7342 143.76 33.3305 143.83 32.9261 143.811C32.5263 143.828 32.1274 143.76 31.7561 143.611C31.3849 143.462 31.0501 143.235 30.7741 142.946C30.2135 142.309 29.9237 141.479 29.9663 140.632C29.9223 139.784 30.2073 138.952 30.7622 138.308C31.0392 138.017 31.3759 137.789 31.7494 137.639C32.1229 137.49 32.5243 137.423 32.9261 137.443ZM31.0275 140.632C30.9999 141.231 31.1882 141.82 31.5582 142.292C31.7254 142.491 31.9341 142.65 32.1696 142.76C32.4051 142.87 32.6618 142.927 32.9218 142.928C33.1818 142.929 33.4387 142.872 33.6747 142.764C33.9108 142.655 34.1202 142.496 34.2883 142.298C34.6635 141.826 34.8541 141.234 34.8246 140.632C34.8515 140.032 34.6634 139.442 34.294 138.967C34.1295 138.761 33.9193 138.595 33.6798 138.484C33.4404 138.373 33.1783 138.319 32.9142 138.326C32.6543 138.322 32.3971 138.378 32.1628 138.491C31.9285 138.603 31.7235 138.768 31.5639 138.973C31.1928 139.445 31.0026 140.033 31.0275 140.632Z" fill="#386097"/>
<path d="M37.3242 137.584L38.7041 142.563H38.7274L39.9541 137.584H41.0505L42.3358 142.563H42.3476L43.7156 137.584H44.7535L42.8193 143.657L42.8079 143.669H41.7462L40.4961 138.832H40.4847L39.258 143.669H38.1735L36.2159 137.584H37.3242Z" fill="#386097"/>
<path d="M47.8906 137.443C48.2784 137.425 48.6648 137.5 49.0176 137.662C49.3703 137.824 49.6792 138.067 49.9185 138.373C50.4328 139.078 50.6908 139.937 50.6497 140.809V140.927H46.0862V140.997C46.0732 141.254 46.1113 141.51 46.1983 141.751C46.2853 141.993 46.4195 142.215 46.593 142.404C46.7759 142.583 46.994 142.722 47.2336 142.812C47.4732 142.902 47.729 142.942 47.9847 142.928C48.3505 142.969 48.7181 142.869 49.012 142.648C49.3059 142.427 49.5037 142.101 49.5647 141.739H50.5556C50.4648 142.347 50.1493 142.899 49.6712 143.287C49.1726 143.649 48.5661 143.834 47.9496 143.811C47.5371 143.837 47.1243 143.766 46.7449 143.602C46.3656 143.439 46.0306 143.187 45.7676 142.869C45.264 142.216 45.0017 141.409 45.0249 140.585C44.9969 139.76 45.2882 138.955 45.8385 138.337C46.0945 138.048 46.4109 137.818 46.7654 137.663C47.1199 137.509 47.5039 137.434 47.8906 137.443ZM49.5885 140.044C49.5707 139.581 49.3791 139.142 49.0517 138.814C48.8905 138.653 48.6981 138.527 48.4863 138.443C48.2744 138.359 48.0476 138.319 47.8198 138.326C47.6021 138.321 47.3857 138.359 47.1832 138.439C46.9807 138.519 46.7962 138.639 46.6406 138.791C46.3066 139.125 46.109 139.572 46.0862 140.044L49.5885 140.044Z" fill="#386097"/>
<path d="M54.8596 137.443V138.502C54.555 138.476 54.2485 138.516 53.9606 138.619C53.6727 138.721 53.4102 138.884 53.1907 139.097C52.7902 139.628 52.5994 140.288 52.6544 140.95V143.669H51.6521V137.584H52.5954V138.867H52.6192C52.7831 138.445 53.0716 138.083 53.4464 137.829C53.8213 137.574 54.2647 137.44 54.718 137.443H54.8596Z" fill="#386097"/>
<path d="M59.8473 135.065C60.7228 135.029 61.5862 135.279 62.306 135.778C62.6312 136.026 62.902 136.339 63.1017 136.696C63.3015 137.054 63.426 137.448 63.4676 137.855H62.3474C62.2673 137.309 61.9748 136.816 61.5333 136.484C61.0378 136.147 60.4462 135.98 59.8473 136.007C59.4463 135.993 59.0476 136.074 58.6832 136.241C58.3187 136.409 57.9985 136.659 57.7481 136.972C57.1879 137.72 56.9084 138.641 56.9584 139.573C56.93 140.439 57.2123 141.286 57.7543 141.963C58.0042 142.275 58.3234 142.524 58.6867 142.692C59.05 142.859 59.4473 142.94 59.8473 142.928C60.5614 142.952 61.2562 142.694 61.7811 142.21C62.0365 141.967 62.237 141.672 62.3692 141.345C62.5014 141.018 62.5622 140.667 62.5475 140.315V140.185H59.8592V139.244H63.5498V143.669H62.8423L62.5475 142.622C62.2413 143.022 61.8402 143.339 61.3802 143.546C60.8989 143.763 60.3758 143.874 59.8473 143.869C59.3097 143.882 58.7756 143.779 58.2812 143.568C57.7868 143.357 57.3436 143.042 56.9817 142.645C56.2189 141.829 55.808 140.747 55.8377 139.632C55.7886 138.445 56.1673 137.28 56.9051 136.348C57.2635 135.923 57.7154 135.586 58.2258 135.363C58.7361 135.141 59.291 135.039 59.8473 135.065Z" fill="#386097"/>
<path d="M68.3378 137.443V138.502C68.0332 138.476 67.7267 138.516 67.4388 138.619C67.1509 138.721 66.8884 138.884 66.6689 139.097C66.2684 139.628 66.0776 140.288 66.1326 140.95V143.669H65.1303V137.584H66.0736V138.867H66.0974C66.2613 138.445 66.5498 138.083 66.9246 137.829C67.2995 137.574 67.7429 137.44 68.1961 137.443H68.3378Z" fill="#386097"/>
<path d="M71.4507 137.443C71.853 137.423 72.2549 137.491 72.6284 137.641C73.002 137.791 73.3385 138.021 73.6146 138.314C74.1303 138.97 74.4106 139.781 74.4106 140.615C74.4106 141.449 74.1303 142.259 73.6146 142.916C73.3422 143.215 73.007 143.45 72.6329 143.605C72.2588 143.76 71.8551 143.83 71.4507 143.811C71.0509 143.828 70.652 143.76 70.2808 143.611C69.9095 143.462 69.5747 143.235 69.2987 142.946C68.7381 142.309 68.4483 141.479 68.4909 140.632C68.4469 139.784 68.7319 138.952 69.2868 138.308C69.5638 138.017 69.9006 137.789 70.274 137.639C70.6475 137.49 71.0489 137.423 71.4507 137.443ZM69.5521 140.632C69.5245 141.231 69.7128 141.82 70.0828 142.292C70.25 142.491 70.4587 142.65 70.6942 142.76C70.9297 142.87 71.1864 142.927 71.4464 142.928C71.7064 142.929 71.9633 142.872 72.1994 142.764C72.4354 142.655 72.6448 142.496 72.8129 142.298C73.1881 141.826 73.3787 141.234 73.3493 140.632C73.3762 140.032 73.188 139.442 72.8186 138.967C72.6541 138.761 72.4439 138.595 72.2044 138.484C71.965 138.373 71.7029 138.319 71.4388 138.326C71.1789 138.322 70.9217 138.378 70.6874 138.491C70.4531 138.603 70.2481 138.768 70.0885 138.973C69.7174 139.445 69.5272 140.033 69.5521 140.632Z" fill="#386097"/>
<path d="M76.4503 137.584V141.727C76.4442 141.886 76.4704 142.045 76.5272 142.193C76.584 142.342 76.6702 142.478 76.7807 142.592C76.901 142.707 77.0436 142.797 77.1999 142.854C77.3561 142.912 77.5226 142.937 77.6889 142.928C77.9373 142.945 78.1864 142.907 78.4187 142.818C78.6509 142.728 78.8606 142.589 79.033 142.41C79.3512 142.032 79.5153 141.549 79.4928 141.056V137.584H80.4951V143.669H79.5518V142.704H79.5285C79.3382 143.058 79.0506 143.35 78.6996 143.546C78.3486 143.742 77.9488 143.834 77.5472 143.811C76.1479 143.811 75.4482 143.089 75.448 141.645V137.584L76.4503 137.584Z" fill="#386097"/>
<path d="M84.7996 137.443C85.1857 137.425 85.5707 137.495 85.926 137.647C86.2813 137.799 86.5976 138.029 86.8512 138.32C87.379 138.977 87.6474 139.803 87.6058 140.644C87.6457 141.477 87.3748 142.295 86.8455 142.939C86.5951 143.226 86.2834 143.453 85.9333 143.604C85.5833 143.755 85.2038 143.826 84.8229 143.811C84.4417 143.81 84.0646 143.732 83.7146 143.581C83.3598 143.434 83.0591 143.181 82.8535 142.857H82.8302V146H81.8279V137.584H82.8302V138.408H82.8535C83.1758 137.765 83.8245 137.443 84.7996 137.443ZM82.7945 140.621C82.762 141.223 82.9391 141.817 83.2957 142.304C83.4668 142.512 83.6846 142.677 83.9315 142.785C84.1784 142.894 84.4475 142.943 84.7168 142.928C84.9752 142.941 85.2328 142.892 85.4679 142.784C85.703 142.676 85.9086 142.514 86.0672 142.31C86.4143 141.8 86.5822 141.189 86.5446 140.574C86.5714 139.989 86.3896 139.413 86.0315 138.95C85.865 138.745 85.6531 138.583 85.4126 138.474C85.1721 138.366 84.9096 138.315 84.646 138.326C84.3887 138.316 84.1327 138.366 83.8982 138.472C83.6638 138.578 83.4574 138.738 83.2957 138.938C82.937 139.423 82.7597 140.018 82.7945 140.621Z" fill="#386097"/>
</svg>
