<svg width="294" height="60" viewBox="0 0 294 60" fill="none" xmlns="http://www.w3.org/2000/svg">
<path d="M58.2615 6.19236V6.17552C58.262 5.38052 58.1055 4.5932 57.8008 3.85853C57.4962 3.12387 57.0494 2.45626 56.4859 1.89383C55.9225 1.33139 55.2535 0.885157 54.5171 0.580612C53.7806 0.276067 52.9913 0.119177 52.1941 0.118903H6.75387C5.95611 0.117768 5.16595 0.27344 4.42855 0.57702C3.69116 0.880599 3.02099 1.32614 2.45637 1.88816C1.89175 2.45018 1.44374 3.11766 1.13796 3.85244C0.832178 4.58723 0.674617 5.37491 0.674286 6.17045C0.673956 6.966 0.830863 7.75381 1.13603 8.48885C1.44121 9.22388 1.88866 9.89174 2.45281 10.4542C3.01697 11.0167 3.68676 11.4628 4.42391 11.767C5.16105 12.0712 5.95108 12.2275 6.74885 12.227L46.107 12.2388L46.1078 51.4844C46.1089 53.0906 46.7493 54.6307 47.8882 55.7664C49.0271 56.9022 50.5715 57.5408 52.1822 57.5419C53.7929 57.543 55.3381 56.9066 56.4786 55.7724C57.6191 54.6382 58.2616 53.099 58.2649 51.4928L58.2615 6.19236H58.2615Z" fill="#C25700"/>
<path d="M40.5004 23.8647C40.5005 23.0699 40.3435 22.2829 40.0386 21.5486C39.7336 20.8143 39.2865 20.1471 38.7229 19.5852C38.1593 19.0232 37.4902 18.5775 36.7538 18.2734C36.0174 17.9694 35.2281 17.813 34.4311 17.8132H6.75384C5.95699 17.8114 5.1676 17.9664 4.43086 18.2691C3.69411 18.5719 3.02447 19.0166 2.46026 19.5777C1.89604 20.1389 1.44833 20.8055 1.14274 21.5394C0.83715 22.2732 0.679683 23.06 0.679352 23.8547C0.679022 24.6493 0.835834 25.4362 1.14081 26.1703C1.44579 26.9045 1.89295 27.5714 2.4567 28.133C3.02045 28.6947 3.68972 29.1399 4.42621 29.4433C5.16271 29.7466 5.95196 29.9022 6.74882 29.9011H28.3585L28.3602 51.4845C28.3585 52.2802 28.5142 53.0683 28.8182 53.8039C29.1223 54.5395 29.5687 55.2081 30.1321 55.7715C30.6955 56.3349 31.3647 56.7819 32.1015 57.0872C32.8383 57.3924 33.6282 57.5498 34.4261 57.5504C35.2239 57.5509 36.014 57.3946 36.7512 57.0904C37.4885 56.7862 38.1583 56.34 38.7225 55.7774C39.2866 55.2148 39.734 54.5468 40.0391 53.8117C40.3442 53.0765 40.5009 52.2886 40.5004 51.4929L40.5004 23.8647Z" fill="#4C79AF"/>
<path d="M22.751 41.3851C22.7499 39.8224 22.1278 38.3239 21.0209 37.2178C19.9141 36.1117 18.4128 35.4881 16.8458 35.4836H6.59407C5.02623 35.4833 3.52248 36.1041 2.41362 37.2094C1.30476 38.3147 0.681612 39.814 0.681275 41.3774C0.680937 42.9409 1.30343 44.4405 2.41182 45.5463C3.52021 46.6521 5.02369 47.2735 6.59152 47.2738L10.9483 47.2797L10.95 51.6464C10.9482 52.4199 11.0993 53.1861 11.3947 53.9013C11.6901 54.6165 12.1241 55.2666 12.6718 55.8144C13.2194 56.3622 13.87 56.7969 14.5863 57.0936C15.3026 57.3904 16.0706 57.5433 16.8463 57.5438C17.6219 57.5442 18.3901 57.3921 19.1067 57.0962C19.8234 56.8003 20.4745 56.3663 21.0228 55.8192C21.571 55.2721 22.0058 54.6225 22.302 53.9076C22.5983 53.1927 22.7503 52.4266 22.7493 51.6531L22.751 41.3851Z" fill="#386097"/>
<path d="M94.3214 11.0558V13.6052H86.7149V33.8128H83.6784V13.6052H76.0715V11.0558H94.3214Z" fill="#386097"/>
<path d="M98.6681 16.9519C102.78 16.9519 104.836 18.4287 104.837 21.3823V30.8806C104.837 31.4967 105.124 31.8047 105.7 31.8044C105.984 31.8033 106.266 31.7493 106.53 31.6453V33.7491C105.93 34.0625 105.258 34.2163 104.581 34.1954C103.047 34.1954 102.28 33.3454 102.28 31.6453C101.568 32.4831 100.674 33.1483 99.6665 33.5902C98.6585 34.0321 97.5628 34.239 96.4626 34.1954C95.0263 34.2788 93.6063 33.8556 92.4515 32.9999C91.9607 32.5793 91.574 32.0512 91.3218 31.4569C91.0695 30.8626 90.9584 30.2182 90.9973 29.574C90.9678 28.9205 91.0812 28.2684 91.3295 27.6629C91.5779 27.0574 91.9552 26.513 92.4355 26.0674C93.3942 25.1966 95.6208 24.538 99.1153 24.0917C99.9617 24.0503 100.787 23.8158 101.529 23.4062C101.736 23.2489 101.901 23.0429 102.01 22.8067C102.119 22.5704 102.168 22.311 102.152 22.0515C102.152 20.2463 100.927 19.3434 98.4762 19.3429C97.4154 19.2679 96.3581 19.5299 95.456 20.0913C95.1045 20.3786 94.8227 20.7414 94.6318 21.1527C94.4408 21.5639 94.3456 22.0129 94.3533 22.4661H91.6364C91.8493 18.7904 94.1931 16.9524 98.6681 16.9519ZM93.8738 29.3823C93.8574 29.7246 93.9244 30.0658 94.0691 30.3766C94.2138 30.6875 94.432 30.9587 94.7048 31.1671C95.4011 31.6338 96.2326 31.8579 97.0698 31.8044C98.3665 31.8578 99.6437 31.4765 100.698 30.7214C101.126 30.4372 101.479 30.054 101.727 29.6044C101.974 29.1549 102.109 28.6522 102.12 28.1394V25.3027C101.543 25.674 100.885 25.9034 100.202 25.9719L97.4217 26.3865C96.4551 26.4622 95.5271 26.7981 94.7368 27.3584C94.4471 27.6073 94.2186 27.9192 94.0689 28.2701C93.9193 28.621 93.8525 29.0016 93.8738 29.3823H93.8738Z" fill="#386097"/>
<path d="M111.771 11.0558V33.8128H109.055V11.0558H111.771Z" fill="#386097"/>
<path d="M122.702 16.952C123.753 16.9042 124.801 17.1078 125.757 17.5459C126.713 17.984 127.551 18.6438 128.199 19.4704C129.593 21.3805 130.292 23.7077 130.181 26.0676V26.3866H117.812V26.5776C117.776 27.2716 117.88 27.9656 118.116 28.6194C118.352 29.2732 118.716 29.8738 119.186 30.3862C119.682 30.8708 120.273 31.2471 120.922 31.4913C121.571 31.7355 122.265 31.8422 122.957 31.8045C125.323 31.8045 126.75 30.7316 127.24 28.5859H129.925C129.68 30.2328 128.825 31.7282 127.528 32.7772C126.177 33.7594 124.533 34.259 122.862 34.1955C120.262 34.1955 118.291 33.3455 116.949 31.6454C115.583 29.8771 114.872 27.6929 114.935 25.462C114.859 23.2259 115.649 21.0463 117.141 19.3749C117.834 18.5911 118.692 17.9681 119.652 17.5496C120.613 17.1311 121.654 16.9271 122.702 16.952ZM127.304 23.9963C127.256 22.7431 126.737 21.5539 125.85 20.6652C125.413 20.2293 124.892 19.8871 124.317 19.6597C123.743 19.4323 123.128 19.3246 122.51 19.343C121.92 19.3302 121.334 19.4349 120.785 19.651C120.236 19.8671 119.736 20.1902 119.314 20.6015C118.409 21.5088 117.874 22.7183 117.812 23.9963H127.304Z" fill="#386097"/>
<path d="M140.823 16.952C144.616 16.952 146.512 18.9176 146.512 22.8489V33.8128H143.796V22.5617C143.821 21.7136 143.511 20.8897 142.933 20.2669C142.601 19.9438 142.205 19.6945 141.77 19.5353C141.334 19.376 140.87 19.3105 140.408 19.343C139.742 19.3018 139.076 19.4059 138.455 19.648C137.834 19.8902 137.273 20.2646 136.812 20.7451C135.941 21.7629 135.489 23.073 135.55 24.4101V33.8128H132.833V17.3347H135.39V19.9486H135.454C135.981 19.0012 136.763 18.219 137.712 17.6898C138.66 17.1605 139.738 16.9051 140.823 16.952Z" fill="#386097"/>
<path d="M153.576 12.3943V17.3347H156.868V19.725H153.576V30.0516C153.541 30.4255 153.644 30.7991 153.864 31.1035C154.055 31.3164 154.535 31.4228 155.302 31.4226H156.868V33.8128H154.631C153.225 33.8128 152.245 33.5792 151.69 33.1118C151.136 32.6442 150.859 31.7305 150.859 30.3707V19.725H148.047V17.3347H150.859V12.3943H153.576Z" fill="#386097"/>
<path d="M176.492 10.5141C179.07 10.5141 181.115 11.1514 182.629 12.4261C183.386 13.078 183.983 13.8934 184.377 14.8103C184.77 15.7272 184.948 16.7215 184.898 17.7175H182.021C181.68 14.6155 179.795 13.0644 176.364 13.0642C175.026 12.9791 173.696 13.3315 172.576 14.068C172.137 14.4052 171.787 14.844 171.556 15.3465C171.325 15.849 171.22 16.4001 171.251 16.9521C171.254 17.3485 171.344 17.7395 171.516 18.0974C171.687 18.4553 171.934 18.7716 172.241 19.024C172.901 19.6189 175.011 20.2775 178.569 20.9998C180.559 21.2901 182.444 22.0738 184.051 23.279C184.656 23.8121 185.132 24.4744 185.445 25.2167C185.758 25.9589 185.898 26.7619 185.856 27.5659C185.888 28.5499 185.663 29.5253 185.204 30.3969C184.745 31.2684 184.067 32.0062 183.236 32.5381C181.369 33.7634 179.174 34.3966 176.94 34.3547C174.063 34.3547 171.773 33.6377 170.068 32.2036C169.22 31.4826 168.549 30.578 168.106 29.5587C167.663 28.5395 167.459 27.4327 167.511 26.323H170.387C170.354 27.0995 170.507 27.8727 170.832 28.5791C171.157 29.2855 171.645 29.9048 172.257 30.3862C173.644 31.3824 175.328 31.8822 177.035 31.8046C178.539 31.8977 180.035 31.5249 181.318 30.7371C181.808 30.3925 182.203 29.9298 182.466 29.392C182.729 28.8542 182.85 28.2588 182.82 27.6614C182.829 27.1346 182.699 26.6148 182.444 26.1535C182.189 25.6922 181.817 25.3056 181.366 25.032C179.825 24.1844 178.14 23.628 176.396 23.3908C173.051 22.7322 170.851 21.9246 169.796 20.968C169.272 20.4886 168.858 19.901 168.585 19.246C168.312 18.591 168.185 17.8845 168.214 17.1756C168.182 16.2469 168.372 15.3239 168.766 14.4819C169.16 13.6399 169.749 12.9028 170.483 12.3307C172.215 11.0498 174.339 10.4077 176.492 10.5141Z" fill="#386097"/>
<path d="M195.413 16.952C196.504 16.8986 197.593 17.0819 198.605 17.4892C199.618 17.8965 200.53 18.5182 201.278 19.3112C202.676 21.089 203.435 23.2828 203.435 25.5419C203.435 27.801 202.676 29.9948 201.278 31.7727C200.54 32.5825 199.631 33.2197 198.617 33.6385C197.603 34.0574 196.509 34.2476 195.413 34.1955C194.329 34.2431 193.248 34.0587 192.242 33.6545C191.236 33.2504 190.328 32.636 189.58 31.8526C188.061 30.1286 187.276 27.8821 187.391 25.59C187.272 23.2931 188.044 21.0387 189.548 19.2949C190.299 18.5062 191.211 17.8884 192.224 17.4841C193.236 17.0797 194.324 16.8982 195.413 16.952ZM190.267 25.59C190.192 27.2112 190.703 28.8054 191.706 30.0834C192.159 30.6211 192.725 31.0536 193.363 31.3509C194.001 31.6482 194.697 31.803 195.401 31.8045C196.106 31.8061 196.802 31.6543 197.442 31.3599C198.081 31.0654 198.649 30.6353 199.105 30.0997C200.122 28.8222 200.639 27.2194 200.559 25.59C200.632 23.964 200.122 22.3652 199.121 21.0797C198.675 20.5211 198.105 20.0735 197.456 19.7721C196.807 19.4707 196.097 19.3238 195.381 19.343C194.677 19.333 193.98 19.4861 193.345 19.7902C192.709 20.0944 192.154 20.5414 191.721 21.0959C190.715 22.3733 190.199 23.967 190.267 25.59H190.267Z" fill="#386097"/>
<path d="M208.709 11.0558V33.8128H205.992V11.0558H208.709Z" fill="#386097"/>
<path d="M215.483 17.3348V28.5542C215.467 28.9845 215.537 29.4138 215.691 29.8163C215.845 30.2187 216.079 30.5861 216.378 30.8963C216.704 31.208 217.091 31.4494 217.514 31.6057C217.937 31.7619 218.388 31.8297 218.839 31.8047C219.512 31.851 220.188 31.7495 220.817 31.5072C221.447 31.2649 222.016 30.8879 222.483 30.4026C223.345 29.3803 223.79 28.0719 223.73 26.7375V17.3348H226.446V33.8129H223.889V31.1991H223.825C223.31 32.1568 222.53 32.9477 221.579 33.4786C220.628 34.0094 219.544 34.2582 218.456 34.1956C214.663 34.1956 212.767 32.2406 212.767 28.3306V17.3348H215.483Z" fill="#386097"/>
<path d="M233.51 12.3943V17.3347H236.802V19.725H233.51V30.0516C233.475 30.4255 233.577 30.7991 233.798 31.1035C233.989 31.3164 234.468 31.4228 235.235 31.4226H236.802V33.8128H234.564C233.158 33.8128 232.178 33.5792 231.624 33.1118C231.069 32.6442 230.792 31.7305 230.793 30.3707V19.725H227.981V17.3347H230.793V12.3943H233.51Z" fill="#386097"/>
<path d="M241.884 11.0558V14.3707H239.167V11.0558H241.884ZM241.884 17.3347V33.8128H239.167V17.3346L241.884 17.3347Z" fill="#386097"/>
<path d="M252.43 16.952C253.52 16.8986 254.61 17.0819 255.622 17.4892C256.635 17.8965 257.547 18.5182 258.295 19.3112C259.693 21.089 260.452 23.2828 260.452 25.5419C260.452 27.801 259.693 29.9948 258.295 31.7727C257.557 32.5825 256.648 33.2197 255.634 33.6385C254.62 34.0574 253.526 34.2476 252.43 34.1955C251.346 34.2431 250.265 34.0587 249.259 33.6545C248.252 33.2504 247.345 32.636 246.597 31.8526C245.078 30.1286 244.293 27.8821 244.408 25.59C244.289 23.2931 245.061 21.0388 246.565 19.2949C247.315 18.5062 248.228 17.8884 249.24 17.4841C250.253 17.0797 251.341 16.8982 252.43 16.952ZM247.284 25.59C247.209 27.2112 247.72 28.8054 248.723 30.0834C249.176 30.6211 249.742 31.0536 250.38 31.3509C251.018 31.6482 251.714 31.803 252.418 31.8045C253.123 31.8061 253.819 31.6543 254.459 31.3599C255.098 31.0654 255.666 30.6353 256.121 30.0997C257.139 28.8222 257.656 27.2194 257.576 25.59C257.648 23.964 257.139 22.3652 256.138 21.0797C255.692 20.5211 255.122 20.0735 254.473 19.7721C253.824 19.4707 253.114 19.3238 252.398 19.343C251.694 19.333 250.996 19.4861 250.361 19.7902C249.726 20.0944 249.171 20.5414 248.738 21.0959C247.732 22.3733 247.216 23.967 247.284 25.59Z" fill="#386097"/>
<path d="M271.478 16.952C275.271 16.952 277.167 18.9177 277.168 22.8489V33.8128H274.451V22.5617C274.473 22.1192 274.4 21.6772 274.235 21.2657C274.07 20.8542 273.819 20.483 273.497 20.1774C273.175 19.8719 272.791 19.6391 272.371 19.4951C271.951 19.3511 271.505 19.2992 271.063 19.343C270.397 19.3018 269.731 19.4059 269.11 19.648C268.489 19.8902 267.928 20.2646 267.467 20.7451C266.595 21.7629 266.144 23.073 266.204 24.4101V33.8128H263.488V17.3347H266.045V19.9486H266.109C266.636 19.0011 267.418 18.219 268.367 17.6897C269.315 17.1605 270.393 16.905 271.478 16.952Z" fill="#386097"/>
<path d="M285.957 16.9521C288.194 16.9521 289.851 17.3825 290.927 18.2431C291.485 18.723 291.932 19.3174 292.238 19.9858C292.545 20.6541 292.702 21.3806 292.701 22.1154H289.984V22.0836C289.961 21.6769 289.843 21.281 289.641 20.9272C289.439 20.5733 289.157 20.2711 288.818 20.0442C288.019 19.5476 287.089 19.3033 286.149 19.3431C285.259 19.2989 284.372 19.4857 283.576 19.885C283.301 20.0283 283.069 20.2415 282.904 20.503C282.738 20.7646 282.645 21.0651 282.634 21.3742C282.622 21.6832 282.693 21.9897 282.839 22.2627C282.985 22.5356 283.2 22.7652 283.464 22.9282C284.243 23.3875 285.098 23.706 285.989 23.8691L288.546 24.4428C289.872 24.6802 291.122 25.2322 292.189 26.0521C292.606 26.4183 292.935 26.8737 293.15 27.3842C293.366 27.8947 293.464 28.4472 293.436 29.0005C293.466 29.7442 293.31 30.4837 292.98 31.1516C292.651 31.8195 292.159 32.3947 291.55 32.8247C290.024 33.8149 288.222 34.2951 286.404 34.1957C284.625 34.2909 282.863 33.804 281.386 32.8092C280.755 32.3098 280.247 31.6718 279.904 30.9447C279.56 30.2177 279.389 29.4214 279.405 28.6178H282.121C282.121 29.0791 282.231 29.5337 282.442 29.944C282.653 30.3542 282.96 30.7081 283.336 30.9763C284.299 31.5827 285.428 31.8724 286.564 31.8047C289.228 31.8047 290.559 30.9867 290.559 29.3507C290.563 29.0035 290.476 28.6614 290.304 28.3591C290.133 28.0568 289.885 27.8051 289.584 27.6296C288.27 26.983 286.863 26.5423 285.413 26.323C283.852 26.1084 282.362 25.5297 281.067 24.6338C280.632 24.2689 280.287 23.8087 280.06 23.289C279.832 22.7693 279.728 22.2043 279.756 21.638C279.74 20.979 279.885 20.3261 280.177 19.7349C280.469 19.1437 280.901 18.6319 281.434 18.2432C282.755 17.3214 284.347 16.867 285.957 16.9521Z" fill="#386097"/>
<path fill-rule="evenodd" clip-rule="evenodd" d="M178.879 47.3583H179.18C179.438 47.3583 179.671 47.3456 179.671 47.0541C179.671 46.805 179.46 46.7636 179.265 46.7636H178.879V47.3583H178.879ZM178.592 46.5315H179.312C179.753 46.5315 179.962 46.7075 179.962 47.0658C179.966 47.132 179.956 47.1984 179.933 47.2606C179.91 47.3229 179.874 47.3797 179.828 47.4274C179.782 47.4751 179.726 47.5128 179.664 47.5379C179.603 47.563 179.536 47.5752 179.47 47.5735L180.004 48.3974H179.691L179.187 47.5936H178.879V48.3974H178.592V46.5315ZM179.209 48.8287C179.481 48.8398 179.751 48.7696 179.983 48.6269C180.215 48.4842 180.399 48.2757 180.511 48.028C180.624 47.7803 180.659 47.5048 180.614 47.2368C180.568 46.9688 180.443 46.7205 180.255 46.5238C180.067 46.327 179.824 46.1909 179.558 46.1327C179.291 46.0745 179.014 46.097 178.76 46.1973C178.507 46.2976 178.289 46.4711 178.135 46.6955C177.982 46.9199 177.898 47.1851 177.897 47.4569C177.889 47.6338 177.917 47.8106 177.979 47.9764C178.041 48.1423 178.137 48.2938 178.259 48.422C178.382 48.5502 178.529 48.6523 178.693 48.7222C178.856 48.7921 179.031 48.8283 179.209 48.8287ZM179.209 45.868C179.526 45.8685 179.836 45.9628 180.099 46.139C180.362 46.3151 180.567 46.5652 180.687 46.8575C180.808 47.1498 180.839 47.4713 180.776 47.7811C180.713 48.0909 180.56 48.3752 180.335 48.598C180.11 48.8207 179.824 48.9719 179.513 49.0324C179.202 49.0929 178.88 49.06 178.587 48.9378C178.295 48.8156 178.046 48.6097 177.871 48.346C177.696 48.0824 177.603 47.773 177.605 47.4569C177.604 47.2471 177.645 47.0393 177.726 46.8455C177.806 46.6517 177.925 46.4758 178.074 46.328C178.223 46.1802 178.4 46.0634 178.595 45.9844C178.79 45.9055 178.999 45.8659 179.209 45.868Z" fill="#386097"/>
<path d="M78.8966 46.8141L81.961 54.9633L85.039 46.8141H86.8096V56.5118H85.5838V48.4439H85.5568L82.5193 56.5118H81.4162L78.3791 48.4439H78.3518V56.5118H77.126V46.8141H78.8966Z" fill="#386097"/>
<path d="M91.4538 49.3267C93.2063 49.3267 94.0826 49.956 94.0827 51.2147V55.2625C94.0827 55.5249 94.2052 55.656 94.4501 55.6558C94.5715 55.6555 94.6917 55.6325 94.8045 55.5879V56.4849C94.5484 56.6183 94.2622 56.6836 93.9735 56.6745C93.3198 56.6745 92.993 56.3123 92.9931 55.5879C92.6899 55.945 92.3091 56.2284 91.8795 56.4167C91.45 56.605 90.9831 56.6931 90.5142 56.6745C89.9022 56.7102 89.2971 56.5298 88.805 56.1651C88.5958 55.9859 88.4309 55.7609 88.3234 55.5076C88.2158 55.2543 88.1685 54.9796 88.1851 54.7051C88.1725 54.4266 88.2208 54.1488 88.3267 53.8908C88.4325 53.6328 88.5933 53.4009 88.798 53.211C89.2065 52.8404 90.1554 52.5598 91.6446 52.3692C92.0053 52.3518 92.3572 52.2519 92.6729 52.0771C92.7613 52.0101 92.8319 51.9223 92.8782 51.8217C92.9245 51.721 92.9453 51.6104 92.9385 51.4999C92.9385 50.7302 92.4164 50.3454 91.3722 50.3454C90.9202 50.3136 90.4696 50.4253 90.0851 50.6644C89.9353 50.7869 89.8152 50.9416 89.7338 51.1169C89.6525 51.2922 89.6119 51.4836 89.6151 51.6767H88.4574C88.5482 50.1098 89.547 49.3264 91.4538 49.3267ZM89.4108 54.6237C89.4039 54.7695 89.4325 54.9149 89.4942 55.0473C89.5559 55.1798 89.6489 55.2953 89.7651 55.3841C90.0617 55.5831 90.416 55.6786 90.7728 55.6557C91.3253 55.6785 91.8696 55.5162 92.3188 55.1945C92.5014 55.0734 92.6519 54.91 92.7574 54.7184C92.863 54.5267 92.9205 54.3124 92.925 54.0938V52.8856C92.6789 53.0434 92.3989 53.141 92.1078 53.1706L90.9228 53.3468C90.5108 53.3793 90.1154 53.5226 89.7786 53.7613C89.6551 53.8673 89.5577 54.0002 89.4939 54.1498C89.4302 54.2993 89.4017 54.4614 89.4108 54.6237Z" fill="#386097"/>
<path d="M99.2444 49.3268C100.86 49.3268 101.668 50.1644 101.669 51.8395V56.5118H100.511V51.7171C100.521 51.3558 100.389 51.0047 100.143 50.7395C100.002 50.6018 99.8329 50.4955 99.6474 50.4276C99.462 50.3597 99.2642 50.3317 99.0671 50.3455C98.7834 50.3279 98.4994 50.3723 98.2347 50.4756C97.9701 50.5788 97.7312 50.7384 97.5348 50.9432C97.1635 51.377 96.9713 51.9353 96.9971 52.5051V56.5118H95.8395V49.4902H96.9291V50.6037H96.956C97.181 50.1999 97.5142 49.8666 97.9184 49.6411C98.3225 49.4156 98.7817 49.3068 99.2444 49.3268Z" fill="#386097"/>
<path d="M106.926 49.3268C107.372 49.3065 107.817 49.387 108.227 49.5623C108.638 49.7376 109.003 50.0031 109.296 50.3391C109.906 51.0969 110.216 52.0512 110.168 53.0215C110.213 53.9823 109.9 54.9259 109.289 55.67C109 56.0009 108.64 56.2629 108.235 56.4368C107.831 56.6106 107.393 56.6919 106.953 56.6745C106.513 56.6739 106.077 56.5838 105.673 56.41C105.263 56.2401 104.916 55.9484 104.679 55.5745H104.652V59.2014H103.494V49.4902H104.652V50.441H104.679C104.901 50.0549 105.234 49.7431 105.633 49.5449C106.033 49.3466 106.483 49.2707 106.926 49.3268ZM104.611 52.994C104.573 53.6886 104.778 54.3749 105.19 54.9365C105.387 55.1765 105.639 55.3667 105.924 55.4917C106.209 55.6167 106.52 55.6729 106.831 55.6559C107.129 55.671 107.427 55.6141 107.698 55.4899C107.97 55.3658 108.207 55.1781 108.39 54.9428C108.791 54.3543 108.985 53.6497 108.942 52.9395C108.973 52.2646 108.763 51.6007 108.349 51.0656C108.157 50.8298 107.912 50.6419 107.634 50.5169C107.357 50.3919 107.053 50.3332 106.749 50.3455C106.452 50.3339 106.156 50.3918 105.885 50.5145C105.615 50.6372 105.376 50.8213 105.19 51.0521C104.775 51.6122 104.57 52.2991 104.611 52.994Z" fill="#386097"/>
<path d="M114.498 49.3267C114.963 49.3039 115.427 49.3821 115.859 49.5556C116.29 49.7292 116.679 49.994 116.997 50.3319C117.593 51.0895 117.917 52.0244 117.917 52.9871C117.917 53.9498 117.593 54.8847 116.997 55.6423C116.683 55.9874 116.296 56.2589 115.864 56.4373C115.432 56.6157 114.965 56.6967 114.498 56.6744C114.037 56.6948 113.576 56.6163 113.147 56.4441C112.718 56.2719 112.331 56.0101 112.013 55.6763C111.365 54.9416 111.03 53.9841 111.08 53.0073C111.029 52.0285 111.358 51.0678 111.999 50.3248C112.319 49.9888 112.708 49.7257 113.139 49.5535C113.571 49.3812 114.034 49.3038 114.498 49.3267ZM112.305 53.0073C112.273 53.6983 112.491 54.3779 112.918 54.9229C113.112 55.1519 113.353 55.3361 113.625 55.4627C113.897 55.5893 114.193 55.6551 114.493 55.6558C114.794 55.6564 115.09 55.5917 115.363 55.4662C115.635 55.3407 115.877 55.1575 116.071 54.9293C116.505 54.3848 116.725 53.7017 116.691 53.0073C116.722 52.3145 116.505 51.6334 116.078 51.086C115.888 50.8478 115.645 50.6569 115.369 50.5284C115.092 50.3998 114.789 50.3372 114.484 50.3453C114.184 50.341 113.887 50.4063 113.617 50.5359C113.346 50.6655 113.11 50.856 112.925 51.0923C112.496 51.6365 112.276 52.3156 112.305 53.0073H112.305Z" fill="#386097"/>
<path d="M119.578 49.4901L121.172 55.2349H121.199L122.616 49.4901H123.882L125.367 55.2349H125.38L126.96 49.4901H128.159L125.925 56.4983L125.911 56.5117H124.686L123.242 50.9297H123.228L121.812 56.5117H120.559L118.298 49.4901H119.578Z" fill="#386097"/>
<path d="M131.782 49.3266C132.23 49.3063 132.676 49.3931 133.083 49.5798C133.491 49.7664 133.848 50.0476 134.124 50.3998C134.718 51.2137 135.016 52.2054 134.969 53.211V53.3468H129.698V53.4288C129.683 53.7245 129.727 54.0203 129.827 54.2988C129.928 54.5774 130.083 54.8333 130.284 55.0516C130.495 55.2581 130.747 55.4185 131.023 55.5225C131.3 55.6265 131.595 55.6719 131.891 55.6557C132.313 55.7033 132.738 55.5876 133.077 55.3325C133.416 55.0773 133.645 54.7021 133.715 54.2841H134.86C134.755 54.986 134.391 55.6233 133.838 56.0703C133.262 56.4888 132.562 56.7016 131.85 56.6744C131.374 56.7054 130.897 56.623 130.459 56.4341C130.02 56.2452 129.634 55.9551 129.33 55.5878C128.748 54.8346 128.445 53.904 128.472 52.9535C128.44 52.0003 128.776 51.0713 129.412 50.3588C129.707 50.0249 130.073 49.7596 130.482 49.5813C130.892 49.403 131.335 49.3161 131.782 49.3266ZM133.743 52.3281C133.722 51.7942 133.501 51.2876 133.123 50.9091C132.937 50.7233 132.715 50.5774 132.47 50.4804C132.225 50.3835 131.963 50.3375 131.7 50.3453C131.448 50.3398 131.198 50.3845 130.964 50.4767C130.731 50.5689 130.518 50.7068 130.338 50.8822C129.952 51.2685 129.724 51.7837 129.698 52.3281H133.743Z" fill="#386097"/>
<path d="M139.831 49.3267V50.5491C139.479 50.5195 139.125 50.5654 138.793 50.6838C138.46 50.8022 138.157 50.9902 137.904 51.2352C137.441 51.8482 137.22 52.6096 137.284 53.3744V56.5117H136.126V49.4901H137.216V50.97H137.243C137.433 50.4834 137.766 50.0656 138.199 49.7722C138.632 49.4787 139.144 49.3233 139.667 49.3267L139.831 49.3267Z" fill="#386097"/>
<path d="M145.592 46.5833C146.603 46.541 147.601 46.8294 148.432 47.4045C148.808 47.6921 149.12 48.0531 149.351 48.4653C149.581 48.8776 149.725 49.3324 149.773 49.8019H148.479C148.387 49.1717 148.05 48.6031 147.54 48.2195C146.967 47.8313 146.284 47.6385 145.592 47.6698C145.129 47.6543 144.669 47.7469 144.248 47.9402C143.827 48.1335 143.457 48.4222 143.168 48.7833C142.521 49.6464 142.198 50.7086 142.255 51.7848C142.222 52.7838 142.548 53.7616 143.174 54.5422C143.463 54.9022 143.832 55.1902 144.251 55.3834C144.671 55.5767 145.13 55.6699 145.592 55.6556C146.417 55.6835 147.219 55.3859 147.825 54.8273C148.12 54.5466 148.352 54.2064 148.504 53.8293C148.657 53.4522 148.727 53.047 148.71 52.6407V52.4914H145.606V51.4049H149.868V56.5116H149.051L148.71 55.3026C148.357 55.7643 147.894 56.1307 147.363 56.3687C146.807 56.6201 146.202 56.7475 145.592 56.7422C144.971 56.7569 144.354 56.6385 143.783 56.3949C143.212 56.1513 142.701 55.7882 142.282 55.3302C141.402 54.3887 140.927 53.1398 140.961 51.8527C140.905 50.4834 141.342 49.1392 142.194 48.0638C142.608 47.5729 143.13 47.1839 143.719 46.9271C144.309 46.6702 144.95 46.5526 145.592 46.5833Z" fill="#386097"/>
<path d="M155.398 49.3267V50.5491C155.047 50.5195 154.693 50.5654 154.36 50.6838C154.028 50.8021 153.724 50.9902 153.471 51.2352C153.008 51.8482 152.787 52.6096 152.851 53.3744V56.5117H151.693V49.4901H152.783V50.97H152.811C153 50.4834 153.333 50.0656 153.766 49.7722C154.199 49.4787 154.711 49.3233 155.234 49.3267L155.398 49.3267Z" fill="#386097"/>
<path d="M158.993 49.3267C159.458 49.3039 159.922 49.382 160.354 49.5555C160.786 49.7291 161.174 49.994 161.493 50.3319C162.089 51.0895 162.413 52.0244 162.413 52.9871C162.413 53.9498 162.089 54.8847 161.493 55.6423C161.179 55.9874 160.791 56.2589 160.359 56.4373C159.927 56.6158 159.461 56.6967 158.993 56.6744C158.532 56.6947 158.071 56.6162 157.642 56.444C157.213 56.2718 156.827 56.01 156.508 55.6763C155.861 54.9414 155.526 53.984 155.575 53.0073C155.524 52.0285 155.853 51.0678 156.494 50.3248C156.814 49.9888 157.203 49.7257 157.634 49.5535C158.066 49.3812 158.529 49.3038 158.993 49.3267ZM156.801 53.0073C156.769 53.6983 156.986 54.3779 157.414 54.9229C157.607 55.1519 157.848 55.3361 158.12 55.4627C158.392 55.5893 158.688 55.6551 158.989 55.6557C159.289 55.6564 159.586 55.5917 159.858 55.4662C160.131 55.3407 160.372 55.1575 160.567 54.9292C161 54.3848 161.221 53.7017 161.187 53.0073C161.218 52.3145 161.001 51.6334 160.574 51.086C160.384 50.8478 160.141 50.6569 159.864 50.5284C159.588 50.3998 159.285 50.3372 158.98 50.3453C158.68 50.341 158.383 50.4063 158.112 50.5359C157.842 50.6655 157.605 50.856 157.421 51.0923C156.992 51.6365 156.772 52.3156 156.801 53.0073Z" fill="#386097"/>
<path d="M164.768 49.4901V54.2707C164.761 54.4541 164.791 54.637 164.857 54.8085C164.922 54.98 165.022 55.1365 165.149 55.2688C165.288 55.4016 165.453 55.5044 165.634 55.571C165.814 55.6375 166.006 55.6664 166.198 55.6558C166.485 55.6755 166.773 55.6323 167.041 55.5291C167.31 55.4259 167.552 55.2654 167.751 55.0587C168.118 54.6229 168.308 54.0654 168.282 53.4968V49.4901H169.44V56.5117H168.35V55.3983H168.323C168.103 55.8063 167.771 56.1431 167.365 56.3692C166.96 56.5953 166.498 56.7012 166.035 56.6744C164.419 56.6744 163.611 55.8416 163.611 54.1759V49.4901H164.768Z" fill="#386097"/>
<path d="M174.411 49.3268C174.857 49.3065 175.302 49.387 175.713 49.5623C176.123 49.7376 176.488 50.0031 176.781 50.339C177.391 51.0969 177.701 52.0512 177.653 53.0215C177.699 53.9823 177.386 54.926 176.774 55.67C176.485 56.0009 176.125 56.2629 175.721 56.4367C175.316 56.6106 174.878 56.6918 174.438 56.6745C173.998 56.6738 173.562 56.5838 173.158 56.4099C172.748 56.24 172.401 55.9483 172.164 55.5745H172.137V59.2013H170.979V49.4902H172.137V50.4409H172.164C172.387 50.0549 172.719 49.7432 173.119 49.5449C173.519 49.3467 173.968 49.2708 174.411 49.3268ZM172.096 52.9939C172.059 53.6886 172.263 54.3748 172.675 54.9364C172.873 55.1764 173.124 55.3666 173.409 55.4916C173.694 55.6166 174.005 55.6728 174.316 55.6559C174.614 55.671 174.912 55.6141 175.183 55.49C175.455 55.3658 175.692 55.1781 175.876 54.9428C176.277 54.3542 176.47 53.6497 176.427 52.9394C176.458 52.2646 176.248 51.6007 175.834 51.0655C175.642 50.8298 175.397 50.642 175.12 50.517C174.842 50.392 174.539 50.3332 174.234 50.3454C173.937 50.334 173.641 50.3919 173.371 50.5146C173.1 50.6373 172.862 50.8213 172.675 51.0521C172.261 51.6122 172.056 52.2991 172.096 52.9939H172.096Z" fill="#386097"/>
</svg>
