<svg width="110" height="146" viewBox="0 0 110 146" fill="none" xmlns="http://www.w3.org/2000/svg">
<path d="M58.7643 6.23145V6.21444C58.7649 5.41061 58.6067 4.61455 58.2989 3.87173C57.9912 3.1289 57.5398 2.45388 56.9706 1.8852C56.4014 1.31652 55.7256 0.865333 54.9816 0.557408C54.2377 0.249483 53.4403 0.0908523 52.635 0.0905767H6.73111C5.92573 0.0902442 5.12817 0.248246 4.38397 0.555562C3.63977 0.862877 2.96349 1.31349 2.39377 1.88166C1.82404 2.44984 1.37202 3.12446 1.06351 3.867C0.754996 4.60954 0.596037 5.40546 0.595704 6.20931C0.595371 7.01317 0.753672 7.80922 1.06157 8.55202C1.36947 9.29481 1.82093 9.9698 2.39018 10.5384C2.95943 11.1071 3.63533 11.5583 4.37928 11.8662C5.12323 12.1741 5.92065 12.3328 6.72603 12.3331L46.4858 12.3451L46.4866 52.0263C46.4855 53.6518 47.1314 55.2112 48.2821 56.3614C49.4329 57.5116 50.9944 58.1584 52.6229 58.1595C54.2515 58.1607 55.8139 57.516 56.9662 56.3674C58.1186 55.2188 58.7666 53.6603 58.7678 52.0348L58.7644 6.23147L58.7643 6.23145Z" fill="white"/>
<path d="M40.822 24.0999C40.8221 23.2963 40.6635 22.5005 40.3554 21.7581C40.0473 21.0156 39.5957 20.341 39.0263 19.7728C38.457 19.2046 37.781 18.7539 37.0371 18.4465C36.2932 18.1391 35.4959 17.981 34.6908 17.9812H6.73109C5.92617 17.9795 5.12881 18.1362 4.38463 18.4424C3.64044 18.7485 2.96405 19.1982 2.39415 19.7655C1.82425 20.3329 1.37204 21.0069 1.06338 21.7489C0.754718 22.4908 0.595671 23.2863 0.595337 24.0897C0.595004 24.8931 0.753388 25.6887 1.06143 26.4309C1.36948 27.1732 1.82114 27.8475 2.39056 28.4153C2.95999 28.9832 3.636 29.4334 4.37993 29.7401C5.12386 30.0469 5.9211 30.2043 6.72602 30.2033H28.5562L28.5579 52.0263C28.5573 52.8301 28.7154 53.6261 29.023 54.3688C29.3307 55.1116 29.7819 55.7866 30.3509 56.3554C30.9199 56.9241 31.5956 57.3754 32.3394 57.6835C33.0831 57.9916 33.8804 58.1505 34.6857 58.151C35.491 58.1516 36.2885 57.9938 37.0326 57.6868C37.7768 57.3797 38.4531 56.9293 39.0229 56.3614C39.5928 55.7934 40.0449 55.119 40.3536 54.3767C40.6623 53.6343 40.8214 52.8386 40.822 52.0348L40.822 24.0999Z" fill="white"/>
<path d="M22.8915 41.8148C22.8904 40.2349 22.2619 38.7197 21.1438 37.6013C20.0256 36.4829 18.509 35.8524 16.926 35.8479H6.56968C4.98585 35.8476 3.46676 36.4752 2.34658 37.5928C1.2264 38.7104 0.596899 40.2263 0.596558 41.8072C0.596217 43.388 1.22507 44.9042 2.34476 46.0223C3.46446 47.1403 4.98328 47.7686 6.56711 47.769L10.9683 47.775L10.9701 52.1901C10.9685 52.972 11.1214 53.7465 11.4199 54.4694C11.7185 55.1923 12.157 55.8493 12.7102 56.4029C13.2634 56.9565 13.9205 57.3959 14.644 57.6958C15.3675 57.9957 16.1431 58.1503 16.9265 58.1507C17.7099 58.1512 18.4857 57.9975 19.2095 57.6984C19.9333 57.3993 20.591 56.9607 21.1448 56.4078C21.6987 55.8548 22.1379 55.1983 22.4373 54.4757C22.7367 53.7532 22.8904 52.9788 22.8898 52.1969L22.8915 41.8148Z" fill="white"/>
<path d="M16.4314 77.7017V79.9179H9.82613V97.4795H7.18966V79.9179H0.584839V77.7017H16.4314Z" fill="white"/>
<path d="M20.2057 82.8262C23.7761 82.8262 25.5615 84.1096 25.562 86.6764V94.9311C25.562 95.4669 25.8117 95.7347 26.3113 95.7346C26.5583 95.7334 26.8028 95.6864 27.0326 95.596V97.4241C26.5112 97.6966 25.9282 97.8302 25.3399 97.8118C24.0076 97.8118 23.3415 97.0732 23.3415 95.596C22.7236 96.3241 21.9476 96.9021 21.0724 97.286C20.1972 97.67 19.2458 97.8498 18.2906 97.8118C17.0435 97.8845 15.8105 97.5169 14.8077 96.7734C14.3815 96.4078 14.0458 95.9487 13.8267 95.4321C13.6076 94.9155 13.5112 94.3554 13.5449 93.7955C13.5193 93.2276 13.6178 92.661 13.8335 92.1349C14.0492 91.6088 14.3769 91.1358 14.794 90.7487C15.6265 89.9913 17.5599 89.4188 20.5942 89.0312C21.3291 88.9951 22.0459 88.7913 22.6896 88.4356C22.8697 88.2988 23.0133 88.1198 23.1077 87.9144C23.202 87.7091 23.2443 87.4837 23.2307 87.2582C23.2307 85.6888 22.1668 84.904 20.0389 84.9039C19.1178 84.8386 18.1997 85.0666 17.4167 85.555C17.1114 85.8045 16.8667 86.1197 16.7008 86.4771C16.535 86.8345 16.4523 87.2246 16.4591 87.6184H14.1002C14.2847 84.4241 16.3199 82.8266 20.2057 82.8262ZM16.0425 93.6294C16.0284 93.9268 16.0866 94.2233 16.2123 94.4934C16.338 94.7635 16.5274 94.9992 16.7643 95.1803C17.3689 95.5859 18.0908 95.7808 18.8178 95.7346C19.9438 95.781 21.0529 95.4493 21.9679 94.7925C22.3398 94.5457 22.6463 94.2127 22.8613 93.822C23.0764 93.4313 23.1935 92.9944 23.2027 92.5488V90.0838C22.7016 90.4065 22.1309 90.6058 21.5375 90.6652L19.1231 91.0254C18.2838 91.0914 17.4781 91.3834 16.7919 91.8701C16.5403 92.0865 16.342 92.3577 16.212 92.6627C16.0821 92.9677 16.0241 93.2984 16.0425 93.6294Z" fill="white"/>
<path d="M31.5838 77.7017V97.4795H29.2245V77.7017H31.5838Z" fill="white"/>
<path d="M41.0747 82.8261C41.9875 82.7846 42.897 82.9615 43.7273 83.3422C44.5577 83.7229 45.2848 84.2962 45.848 85.0144C46.9948 86.4737 47.5684 88.3851 47.5687 90.7487V91.0253H36.8283V91.1914C36.7978 91.7946 36.8876 92.3977 37.0924 92.966C37.2973 93.5342 37.6132 94.0562 38.0217 94.5016C38.452 94.9228 38.9653 95.2499 39.5292 95.4622C40.0931 95.6745 40.695 95.7672 41.2968 95.7345C43.3503 95.7345 44.5899 94.802 45.0154 92.9369H47.3467C47.1339 94.3683 46.3911 95.6679 45.2651 96.5793C44.0917 97.4328 42.6644 97.867 41.2136 97.8117C38.956 97.8117 37.2445 97.0731 36.0789 95.596C34.8935 94.0592 34.2759 92.1611 34.3306 90.2224C34.2648 88.2787 34.9505 86.3842 36.2458 84.9313C36.8484 84.2504 37.5928 83.7091 38.4269 83.3455C39.261 82.9818 40.1647 82.8046 41.0747 82.8261ZM45.071 88.9481C45.0294 87.8591 44.5785 86.8256 43.8082 86.0532C43.4289 85.6743 42.9759 85.3769 42.4771 85.1792C41.9783 84.9815 41.4442 84.8878 40.9078 84.9038C40.3956 84.8928 39.8864 84.9838 39.4099 85.1717C38.9335 85.3595 38.4993 85.6403 38.133 85.9977C37.3474 86.7863 36.8825 87.8375 36.8283 88.9482L45.071 88.9481Z" fill="white"/>
<path d="M56.8099 82.8261C60.1025 82.8261 61.7491 84.5342 61.7496 87.9505V97.4795H59.3908V87.7014C59.4103 87.3168 59.3464 86.9326 59.2034 86.575C59.0605 86.2174 58.842 85.8948 58.5627 85.6292C58.2834 85.3636 57.95 85.1613 57.5852 85.0361C57.2205 84.9109 56.8329 84.8658 56.449 84.9038C55.8711 84.8679 55.2922 84.9583 54.7529 85.1688C54.2136 85.3793 53.7269 85.7048 53.3266 86.1225C52.57 87.0072 52.1782 88.1457 52.2306 89.3078V97.4795H49.8718V83.1588H52.0918V85.4301H52.1474C52.6057 84.6067 53.2846 83.9269 54.1081 83.467C54.9316 83.0071 55.8671 82.7851 56.8099 82.8261Z" fill="white"/>
<path d="M67.8828 78.8654V83.1589H70.7413V85.2361H67.8828V94.2112C67.8529 94.5359 67.9415 94.8605 68.1324 95.1252C68.2988 95.3098 68.7151 95.4021 69.3814 95.4019H70.7413V97.4796H68.7985C67.5775 97.4796 66.7264 97.2765 66.2452 96.8702C65.764 96.464 65.5236 95.6699 65.5239 94.4879V85.236H63.0814V83.1588H65.5239V78.8654L67.8828 78.8654Z" fill="white"/>
<path d="M8.31798 103.744C10.5565 103.744 12.3327 104.298 13.6466 105.406C14.3037 105.972 14.8228 106.681 15.1642 107.478C15.5057 108.274 15.6605 109.138 15.617 110.004H13.1193C12.8231 107.308 11.1857 105.96 8.2072 105.96C6.78221 105.96 5.68593 106.251 4.91836 106.832C4.53686 107.125 4.23263 107.507 4.03198 107.944C3.83133 108.38 3.7403 108.859 3.76676 109.339C3.76987 109.684 3.84847 110.023 3.99706 110.334C4.14565 110.645 4.36062 110.92 4.62689 111.14C5.20031 111.657 7.03198 112.229 10.1219 112.857C12.2492 113.282 13.8357 113.942 14.8814 114.838C15.4068 115.301 15.8207 115.876 16.0922 116.522C16.3637 117.167 16.4858 117.865 16.4495 118.563C16.4772 119.419 16.282 120.266 15.8831 121.024C15.4843 121.781 14.8953 122.422 14.1739 122.884C12.5529 123.95 10.6468 124.5 8.70644 124.463C6.20879 124.463 4.21989 123.84 2.73974 122.593C2.00381 121.967 1.42118 121.181 1.03641 120.295C0.651634 119.409 0.474914 118.448 0.519762 117.483H3.01742C2.98867 118.158 3.12082 118.83 3.40303 119.444C3.68523 120.058 4.10941 120.596 4.64069 121.015C5.84498 121.88 7.30698 122.315 8.78965 122.247C10.3996 122.247 11.6393 121.938 12.5088 121.319C12.9344 121.02 13.2772 120.617 13.5052 120.15C13.7332 119.683 13.8391 119.166 13.813 118.646C13.8208 118.189 13.7082 117.737 13.4867 117.336C13.2651 116.935 12.9422 116.599 12.5502 116.361C11.7081 115.798 10.2696 115.323 8.23477 114.935C5.32964 114.362 3.41936 113.661 2.50391 112.83C2.04863 112.413 1.68988 111.902 1.45264 111.333C1.2154 110.763 1.10539 110.149 1.13028 109.533C1.10305 108.726 1.26734 107.924 1.60976 107.192C1.95218 106.461 2.46303 105.82 3.10063 105.323C4.41389 104.27 6.153 103.744 8.31798 103.744Z" fill="white"/>
<path d="M24.7474 109.339C26.8932 109.339 28.5906 110.022 29.8397 111.389C31.0888 112.756 31.7132 114.575 31.7131 116.846C31.79 118.809 31.1208 120.728 29.8397 122.22C28.5911 123.623 26.8937 124.325 24.7474 124.325C23.8064 124.366 22.8674 124.206 21.9937 123.855C21.12 123.503 20.3318 122.97 19.6822 122.289C18.4151 120.931 17.7814 119.117 17.7812 116.846C17.7812 114.557 18.4057 112.733 19.6546 111.375C20.9037 110.018 22.6013 109.339 24.7474 109.339ZM20.2789 116.846C20.214 118.255 20.6572 119.641 21.528 120.752C21.9216 121.219 22.4127 121.595 22.967 121.853C23.5213 122.112 24.1253 122.246 24.7371 122.248C25.3488 122.249 25.9534 122.117 26.5088 121.861C27.0642 121.605 27.5569 121.231 27.9526 120.765C28.8359 119.655 29.2847 118.262 29.2154 116.846C29.2786 115.433 28.8358 114.043 27.9663 112.926C27.5792 112.441 27.0844 112.052 26.5209 111.79C25.9575 111.528 25.3407 111.4 24.7193 111.417C24.1077 111.408 23.5025 111.541 22.9511 111.806C22.3997 112.07 21.9173 112.458 21.5418 112.94C20.668 114.05 20.2201 115.435 20.2789 116.846Z" fill="white"/>
<path d="M36.2919 104.215V123.992H33.9326V104.215H36.2919Z" fill="white"/>
<path d="M42.175 109.672V119.422C42.1605 119.796 42.2219 120.169 42.3554 120.519C42.4889 120.869 42.6918 121.188 42.9519 121.458C43.2348 121.729 43.5704 121.939 43.938 122.074C44.3056 122.21 44.6973 122.269 45.0887 122.247C46.4766 122.247 47.5312 121.841 48.2525 121.029C49.0014 120.14 49.3879 119.003 49.3351 117.843V109.672H51.6939V123.992H49.474V121.721H49.4183C48.4374 123.457 46.8833 124.325 44.7558 124.325C41.4622 124.325 39.8157 122.626 39.8162 119.228V109.672H42.175Z" fill="white"/>
<path d="M57.8274 105.378V109.672H60.686V111.749H57.8274V120.724C57.7976 121.049 57.8862 121.373 58.0771 121.638C58.2435 121.823 58.6598 121.915 59.3261 121.915H60.686V123.993H58.7432C57.5222 123.993 56.6711 123.789 56.1899 123.383C55.7087 122.977 55.4683 122.183 55.4686 121.001V111.749H53.0261V109.672H55.4686V105.378L57.8274 105.378Z" fill="white"/>
<path d="M65.0984 104.215V107.096H62.7391V104.215H65.0984ZM65.0984 109.672V123.992H62.7391V109.672H65.0984Z" fill="white"/>
<path d="M74.2559 109.339C76.4018 109.339 78.0992 110.022 79.3483 111.389C80.5973 112.756 81.2218 114.575 81.2216 116.846C81.2985 118.809 80.6294 120.728 79.3483 122.22C78.0997 123.623 76.4022 124.325 74.2559 124.325C73.315 124.366 72.376 124.206 71.5023 123.855C70.6286 123.503 69.8404 122.97 69.1907 122.289C67.9236 120.931 67.29 119.117 67.2898 116.846C67.2898 114.557 67.9143 112.733 69.1632 111.375C70.4122 110.018 72.1098 109.339 74.2559 109.339ZM69.7875 116.846C69.7226 118.255 70.1657 119.641 71.0365 120.752C71.4302 121.219 71.9213 121.595 72.4756 121.853C73.0298 122.112 73.6339 122.246 74.2456 122.248C74.8573 122.249 75.462 122.117 76.0173 121.861C76.5727 121.605 77.0654 121.231 77.4611 120.765C78.3445 119.655 78.7933 118.262 78.724 116.846C78.7872 115.433 78.3444 114.043 77.4749 112.926C77.0878 112.441 76.593 112.052 76.0295 111.79C75.466 111.528 74.8493 111.4 74.2279 111.417C73.6163 111.408 73.011 111.541 72.4597 111.806C71.9083 112.07 71.4259 112.458 71.0503 112.94C70.1765 114.05 69.7287 115.435 69.7875 116.846H69.7875Z" fill="white"/>
<path d="M90.7962 109.339C94.0889 109.339 95.7354 111.047 95.7359 114.464V123.993H93.3771V114.214C93.3966 113.83 93.3327 113.446 93.1898 113.088C93.0469 112.73 92.8283 112.408 92.549 112.142C92.2698 111.877 91.9363 111.674 91.5716 111.549C91.2068 111.424 90.8192 111.379 90.4354 111.417C89.8574 111.381 89.2786 111.471 88.7393 111.682C88.2 111.892 87.7132 112.218 87.3129 112.636C86.5563 113.52 86.1646 114.659 86.217 115.821V123.993H83.8582V109.672H86.0781V111.943H86.1338C86.592 111.12 87.2709 110.44 88.0944 109.98C88.9179 109.52 89.8535 109.298 90.7962 109.339Z" fill="white"/>
<path d="M103.368 109.339C105.311 109.339 106.749 109.713 107.684 110.461C108.618 111.209 109.131 112.331 109.224 113.827H106.865V113.799C106.845 113.445 106.743 113.101 106.567 112.794C106.392 112.486 106.147 112.223 105.852 112.026C105.159 111.595 104.351 111.382 103.535 111.417C102.762 111.379 101.992 111.541 101.3 111.887C101.062 112.012 100.861 112.198 100.717 112.425C100.574 112.652 100.493 112.914 100.483 113.182C100.473 113.451 100.535 113.717 100.661 113.954C100.788 114.191 100.975 114.391 101.203 114.533C101.88 114.932 102.622 115.209 103.396 115.35L105.616 115.849C106.768 116.055 107.853 116.535 108.78 117.247C109.142 117.566 109.427 117.961 109.614 118.405C109.802 118.849 109.886 119.329 109.862 119.81C109.889 120.456 109.753 121.099 109.467 121.679C109.181 122.26 108.754 122.76 108.225 123.134C107.133 123.928 105.644 124.325 103.757 124.325C101.925 124.325 100.473 123.923 99.3994 123.12C98.3263 122.317 97.7527 121.103 97.6787 119.477H100.038C100.037 119.878 100.133 120.273 100.316 120.63C100.5 120.986 100.766 121.294 101.093 121.527C101.928 122.054 102.909 122.306 103.896 122.247C106.208 122.247 107.365 121.536 107.365 120.114C107.368 119.813 107.292 119.515 107.143 119.253C106.995 118.99 106.779 118.771 106.518 118.619C105.953 118.25 104.746 117.871 102.897 117.483C101.138 117.133 99.8801 116.643 99.1222 116.015C98.7443 115.698 98.4449 115.298 98.2474 114.846C98.05 114.394 97.9598 113.903 97.9839 113.411C97.9702 112.838 98.0956 112.271 98.3494 111.757C98.6032 111.243 98.9778 110.799 99.4413 110.461C100.588 109.66 101.97 109.265 103.368 109.339Z" fill="white"/>
<path fill-rule="evenodd" clip-rule="evenodd" d="M88.8493 135.69H89.1108C89.3358 135.69 89.5385 135.679 89.5385 135.425C89.5385 135.208 89.3547 135.172 89.1849 135.172H88.8493V135.69ZM88.5989 134.969H89.2257C89.6098 134.969 89.7922 135.123 89.7922 135.435C89.7956 135.493 89.787 135.551 89.7669 135.605C89.7467 135.659 89.7155 135.709 89.6752 135.75C89.6349 135.792 89.5864 135.825 89.5328 135.847C89.4791 135.868 89.4215 135.879 89.3636 135.878L89.8287 136.596H89.5561L89.1173 135.895H88.8493V136.596H88.5989V134.969H88.5989ZM89.1363 136.972C89.3735 136.981 89.6082 136.92 89.8103 136.796C90.0124 136.671 90.1727 136.49 90.2706 136.274C90.3685 136.058 90.3995 135.818 90.3597 135.584C90.3199 135.35 90.2111 135.134 90.0472 134.963C89.8833 134.791 89.6719 134.672 89.4399 134.622C89.208 134.571 88.9662 134.591 88.7455 134.678C88.5249 134.765 88.3354 134.917 88.2014 135.112C88.0674 135.308 87.995 135.539 87.9935 135.776C87.9866 135.93 88.011 136.084 88.0653 136.229C88.1195 136.373 88.2025 136.505 88.3093 136.617C88.4161 136.729 88.5444 136.818 88.6865 136.879C88.8286 136.94 88.9816 136.971 89.1363 136.972ZM89.1363 134.391C89.4124 134.391 89.682 134.474 89.9112 134.627C90.1404 134.781 90.3188 134.999 90.4238 135.253C90.5288 135.508 90.5557 135.788 90.5011 136.059C90.4464 136.329 90.3127 136.576 90.1169 136.771C89.921 136.965 89.6719 137.097 89.401 137.149C89.13 137.202 88.8495 137.173 88.5949 137.067C88.3403 136.96 88.1232 136.781 87.9709 136.551C87.8186 136.321 87.738 136.051 87.7394 135.776C87.7388 135.593 87.7745 135.412 87.8446 135.243C87.9147 135.074 88.0177 134.921 88.1477 134.792C88.2777 134.663 88.432 134.561 88.6017 134.492C88.7714 134.424 88.9531 134.389 89.1363 134.391Z" fill="white"/>
<path d="M2.10117 135.266L4.75478 142.328L7.4198 135.266H8.95271V143.669H7.89146V136.678H7.86769L5.23786 143.669H4.28311L1.65327 136.678H1.62949V143.669H0.568237V135.266H2.10117Z" fill="white"/>
<path d="M12.9738 137.443C14.491 137.443 15.2497 137.988 15.2499 139.079V142.586C15.2499 142.814 15.3559 142.928 15.568 142.928C15.6729 142.927 15.7769 142.907 15.8746 142.869V143.646C15.6532 143.762 15.4053 143.819 15.1553 143.811C14.5894 143.811 14.3065 143.497 14.3065 142.869C14.0439 143.179 13.7142 143.424 13.3423 143.587C12.9704 143.75 12.5662 143.827 12.1603 143.811C11.6303 143.842 11.1063 143.685 10.6801 143.369C10.4991 143.214 10.3565 143.019 10.2634 142.799C10.1704 142.58 10.1294 142.342 10.1438 142.104C10.1329 141.862 10.1748 141.622 10.2664 141.398C10.358 141.175 10.4972 140.974 10.6744 140.809C11.0282 140.488 11.8496 140.245 13.1388 140.08C13.4511 140.064 13.7558 139.977 14.0293 139.826C14.1058 139.768 14.1668 139.692 14.2069 139.605C14.2469 139.517 14.2648 139.422 14.259 139.326C14.259 138.659 13.807 138.326 12.903 138.326C12.5116 138.298 12.1216 138.395 11.7889 138.602C11.6593 138.708 11.5553 138.842 11.4848 138.994C11.4143 139.146 11.3792 139.312 11.3819 139.479H10.3796C10.4581 138.122 11.3228 137.443 12.9738 137.443ZM11.205 142.033C11.199 142.16 11.2238 142.286 11.2772 142.4C11.3306 142.515 11.4111 142.615 11.5117 142.692C11.7685 142.865 12.0753 142.948 12.3842 142.928C12.8627 142.948 13.334 142.807 13.7226 142.527C13.8807 142.423 14.0111 142.281 14.1025 142.115C14.1939 141.949 14.2437 141.763 14.2476 141.574V140.527C14.0346 140.664 13.7922 140.748 13.5401 140.774L12.514 140.927C12.1574 140.955 11.8151 141.079 11.5236 141.286C11.4166 141.378 11.3322 141.493 11.277 141.623C11.2218 141.752 11.1971 141.893 11.205 142.033Z" fill="white"/>
<path d="M19.7189 137.443C21.1177 137.443 21.8173 138.169 21.8176 139.62V143.669H20.8153V139.514C20.8245 139.201 20.7101 138.897 20.4968 138.667C20.3744 138.547 20.2282 138.455 20.0677 138.397C19.9071 138.338 19.7359 138.314 19.5653 138.326C19.3198 138.31 19.0739 138.349 18.8448 138.438C18.6156 138.528 18.4088 138.666 18.2387 138.843C17.9172 139.219 17.7506 139.703 17.7728 140.197V143.669H16.7705V137.584H17.7138V138.549H17.7376C17.9324 138.199 18.2209 137.91 18.5708 137.715C18.9208 137.52 19.3183 137.425 19.7189 137.443Z" fill="white"/>
<path d="M26.3698 137.443C26.7558 137.425 27.1409 137.495 27.4962 137.647C27.8515 137.799 28.1678 138.029 28.4214 138.32C28.9491 138.977 29.2176 139.803 29.176 140.644C29.2159 141.477 28.945 142.295 28.4157 142.939C28.1653 143.226 27.8535 143.453 27.5035 143.604C27.1535 143.755 26.774 143.826 26.3931 143.811C26.0118 143.81 25.6348 143.732 25.2847 143.581C24.93 143.434 24.6293 143.181 24.4236 142.857H24.4004V146H23.3981V137.584H24.4004V138.408H24.4237C24.746 137.765 25.3947 137.443 26.3698 137.443ZM24.3647 140.621C24.3322 141.223 24.5093 141.817 24.8658 142.304C25.0369 142.512 25.2548 142.677 25.5017 142.785C25.7486 142.894 26.0177 142.943 26.287 142.928C26.5453 142.941 26.803 142.892 27.0381 142.784C27.2732 142.676 27.4788 142.514 27.6374 142.31C27.9845 141.8 28.1524 141.189 28.1147 140.574C28.1415 139.989 27.9598 139.413 27.6017 138.95C27.4352 138.745 27.2233 138.583 26.9828 138.474C26.7423 138.366 26.4798 138.315 26.2162 138.326C25.9589 138.316 25.7028 138.366 25.4684 138.472C25.234 138.578 25.0276 138.738 24.8658 138.938C24.5072 139.423 24.3299 140.018 24.3647 140.621Z" fill="white"/>
<path d="M32.926 137.443C33.3284 137.423 33.7302 137.491 34.1038 137.641C34.4773 137.791 34.8138 138.021 35.0899 138.314C35.6056 138.97 35.8859 139.781 35.8859 140.615C35.8859 141.449 35.6056 142.259 35.0899 142.916C34.8175 143.215 34.4823 143.45 34.1082 143.605C33.7342 143.76 33.3305 143.83 32.926 143.811C32.5262 143.828 32.1273 143.76 31.7561 143.611C31.3849 143.462 31.05 143.235 30.774 142.946C30.2134 142.309 29.9236 141.479 29.9662 140.632C29.9222 139.784 30.2073 138.952 30.7622 138.308C31.0391 138.017 31.3759 137.789 31.7494 137.639C32.1228 137.49 32.5242 137.423 32.926 137.443ZM31.0275 140.632C30.9998 141.231 31.1881 141.82 31.5581 142.292C31.7254 142.491 31.934 142.65 32.1695 142.76C32.4051 142.87 32.6618 142.927 32.9217 142.928C33.1817 142.929 33.4387 142.872 33.6747 142.764C33.9107 142.655 34.1201 142.496 34.2883 142.298C34.6634 141.826 34.854 141.234 34.8246 140.632C34.8515 140.032 34.6634 139.442 34.294 138.967C34.1295 138.761 33.9192 138.595 33.6798 138.484C33.4403 138.373 33.1782 138.319 32.9141 138.326C32.6542 138.322 32.397 138.378 32.1627 138.491C31.9284 138.603 31.7234 138.768 31.5638 138.973C31.1927 139.445 31.0025 140.033 31.0275 140.632Z" fill="white"/>
<path d="M37.3241 137.584L38.7039 142.563H38.7272L39.954 137.584H41.0504L42.3356 142.563H42.3475L43.7154 137.584H44.7534L42.8192 143.657L42.8078 143.669H41.746L40.496 138.832H40.4846L39.2579 143.669H38.1733L36.2158 137.584H37.3241Z" fill="white"/>
<path d="M47.8906 137.443C48.2784 137.425 48.6648 137.5 49.0176 137.662C49.3703 137.824 49.6792 138.067 49.9185 138.373C50.4328 139.078 50.6908 139.937 50.6497 140.809V140.927H46.0862V140.997C46.0732 141.254 46.1113 141.51 46.1983 141.751C46.2853 141.993 46.4195 142.215 46.593 142.404C46.7759 142.583 46.994 142.722 47.2336 142.812C47.4732 142.902 47.729 142.942 47.9847 142.928C48.3505 142.969 48.7181 142.869 49.012 142.648C49.3059 142.427 49.5037 142.101 49.5647 141.739H50.5556C50.4648 142.347 50.1493 142.899 49.6712 143.287C49.1726 143.649 48.5661 143.834 47.9496 143.811C47.5371 143.837 47.1243 143.766 46.7449 143.602C46.3656 143.439 46.0306 143.187 45.7676 142.869C45.264 142.216 45.0017 141.409 45.0249 140.585C44.9969 139.76 45.2882 138.955 45.8385 138.337C46.0945 138.048 46.4109 137.818 46.7654 137.663C47.1199 137.509 47.5039 137.434 47.8906 137.443ZM49.5885 140.044C49.5707 139.581 49.3791 139.142 49.0517 138.814C48.8905 138.653 48.6981 138.527 48.4863 138.443C48.2744 138.359 48.0476 138.319 47.8198 138.326C47.6021 138.321 47.3857 138.359 47.1832 138.439C46.9807 138.519 46.7962 138.639 46.6406 138.791C46.3066 139.125 46.109 139.572 46.0862 140.044L49.5885 140.044Z" fill="white"/>
<path d="M54.8595 137.443V138.502C54.5549 138.476 54.2484 138.516 53.9605 138.619C53.6726 138.721 53.4101 138.884 53.1906 139.097C52.7901 139.628 52.5992 140.288 52.6543 140.95V143.669H51.652V137.584H52.5953V138.867H52.6191C52.783 138.445 53.0715 138.083 53.4463 137.829C53.8211 137.574 54.2646 137.44 54.7178 137.443H54.8595Z" fill="white"/>
<path d="M59.8473 135.065C60.7227 135.029 61.5861 135.279 62.3059 135.778C62.6311 136.026 62.9019 136.339 63.1017 136.696C63.3014 137.054 63.4259 137.448 63.4675 137.855H62.3473C62.2672 137.309 61.9748 136.816 61.5333 136.484C61.0378 136.147 60.4462 135.98 59.8473 136.007C59.4462 135.993 59.0476 136.074 58.6831 136.241C58.3187 136.409 57.9985 136.659 57.7481 136.972C57.1878 137.72 56.9083 138.641 56.9583 139.573C56.9299 140.439 57.2122 141.286 57.7542 141.963C58.0041 142.275 58.3233 142.524 58.6866 142.692C59.0499 142.859 59.4473 142.94 59.8473 142.928C60.5614 142.952 61.2562 142.694 61.781 142.21C62.0365 141.967 62.237 141.672 62.3691 141.345C62.5013 141.018 62.5621 140.667 62.5475 140.315V140.185H59.8592V139.244H63.5498V143.669H62.8423L62.5475 142.622C62.2413 143.022 61.8401 143.339 61.3802 143.546C60.8988 143.763 60.3757 143.874 59.8473 143.869C59.3096 143.882 58.7755 143.779 58.2811 143.568C57.7867 143.357 57.3435 143.042 56.9816 142.645C56.2188 141.829 55.8079 140.747 55.8376 139.632C55.7886 138.445 56.1673 137.28 56.905 136.348C57.2634 135.923 57.7154 135.586 58.2257 135.363C58.736 135.141 59.291 135.039 59.8473 135.065Z" fill="white"/>
<path d="M68.3378 137.443V138.502C68.0332 138.476 67.7266 138.516 67.4387 138.619C67.1508 138.721 66.8883 138.884 66.6689 139.097C66.2684 139.628 66.0775 140.288 66.1325 140.95V143.669H65.1302V137.584H66.0736V138.867H66.0974C66.2613 138.445 66.5497 138.083 66.9246 137.829C67.2994 137.574 67.7428 137.44 68.1961 137.443H68.3378Z" fill="white"/>
<path d="M71.4507 137.443C71.853 137.423 72.2549 137.491 72.6284 137.641C73.002 137.791 73.3385 138.021 73.6146 138.314C74.1303 138.97 74.4106 139.781 74.4106 140.615C74.4106 141.449 74.1303 142.259 73.6146 142.916C73.3422 143.215 73.007 143.45 72.6329 143.605C72.2588 143.76 71.8551 143.83 71.4507 143.811C71.0509 143.828 70.652 143.76 70.2808 143.611C69.9095 143.462 69.5747 143.235 69.2987 142.946C68.7381 142.309 68.4483 141.479 68.4909 140.632C68.4469 139.784 68.7319 138.952 69.2868 138.308C69.5638 138.017 69.9006 137.789 70.274 137.639C70.6475 137.49 71.0489 137.423 71.4507 137.443ZM69.5521 140.632C69.5245 141.231 69.7128 141.82 70.0828 142.292C70.25 142.491 70.4587 142.65 70.6942 142.76C70.9297 142.87 71.1864 142.927 71.4464 142.928C71.7064 142.929 71.9633 142.872 72.1994 142.764C72.4354 142.655 72.6448 142.496 72.8129 142.298C73.1881 141.826 73.3787 141.234 73.3493 140.632C73.3762 140.032 73.188 139.442 72.8186 138.967C72.6541 138.761 72.4439 138.595 72.2044 138.484C71.965 138.373 71.7029 138.319 71.4388 138.326C71.1789 138.322 70.9217 138.378 70.6874 138.491C70.4531 138.603 70.2481 138.768 70.0885 138.973C69.7174 139.445 69.5272 140.033 69.5521 140.632Z" fill="white"/>
<path d="M76.4503 137.584V141.727C76.4442 141.886 76.4704 142.045 76.5272 142.193C76.584 142.342 76.6702 142.478 76.7807 142.592C76.901 142.707 77.0436 142.797 77.1999 142.854C77.3561 142.912 77.5226 142.937 77.6889 142.928C77.9373 142.945 78.1864 142.907 78.4187 142.818C78.6509 142.728 78.8606 142.589 79.033 142.41C79.3512 142.032 79.5153 141.549 79.4928 141.056V137.584H80.4951V143.669H79.5518V142.704H79.5285C79.3382 143.058 79.0506 143.35 78.6996 143.546C78.3486 143.742 77.9488 143.834 77.5472 143.811C76.1479 143.811 75.4482 143.089 75.448 141.645V137.584L76.4503 137.584Z" fill="white"/>
<path d="M84.7996 137.443C85.1857 137.425 85.5707 137.495 85.926 137.647C86.2813 137.799 86.5976 138.029 86.8512 138.32C87.379 138.977 87.6474 139.803 87.6058 140.644C87.6457 141.477 87.3748 142.295 86.8455 142.939C86.5951 143.226 86.2834 143.453 85.9333 143.604C85.5833 143.755 85.2038 143.826 84.8229 143.811C84.4417 143.81 84.0646 143.732 83.7146 143.581C83.3598 143.434 83.0591 143.181 82.8535 142.857H82.8302V146H81.8279V137.584H82.8302V138.408H82.8535C83.1758 137.765 83.8245 137.443 84.7996 137.443ZM82.7945 140.621C82.762 141.223 82.9391 141.817 83.2957 142.304C83.4668 142.512 83.6846 142.677 83.9315 142.785C84.1784 142.894 84.4475 142.943 84.7168 142.928C84.9752 142.941 85.2328 142.892 85.4679 142.784C85.703 142.676 85.9086 142.514 86.0672 142.31C86.4143 141.8 86.5822 141.189 86.5446 140.574C86.5714 139.989 86.3896 139.413 86.0315 138.95C85.865 138.745 85.6531 138.583 85.4126 138.474C85.1721 138.366 84.9096 138.315 84.646 138.326C84.3887 138.316 84.1327 138.366 83.8982 138.472C83.6638 138.578 83.4574 138.738 83.2957 138.938C82.937 139.423 82.7597 140.018 82.7945 140.621Z" fill="white"/>
</svg>
